<!--?xml version="1.0" standalone="no"?-->
              <svg id="sw-js-blob-svg" viewBox="0 0 100 100" xmlns="http://www.w3.org/2000/svg" version="1.1">
                    <defs> 
                        <linearGradient id="sw-gradient" x1="0" x2="1" y1="1" y2="0">
                            <stop id="stop1" stop-color="rgba(240, 200, 210, 1)" offset="0%"></stop>
                            <stop id="stop2" stop-color="rgba(224.453, 160.387, 176.403, 1)" offset="100%"></stop>
                        </linearGradient>
                    </defs>
                <path fill="url(#sw-gradient)" d="M16.4,-26.6C23.6,-24.3,33.3,-24.6,38,-20.6C42.8,-16.6,42.4,-8.3,40.7,-1C38.9,6.3,35.7,12.5,31.8,17.9C27.9,23.3,23.3,27.9,17.9,32.8C12.5,37.8,6.2,43.2,-0.7,44.3C-7.6,45.5,-15.2,42.5,-18.9,36.6C-22.6,30.6,-22.4,21.7,-23.8,15.1C-25.1,8.5,-28.1,4.3,-31,-1.7C-34,-7.7,-37,-15.4,-35.5,-21.9C-34.1,-28.4,-28.4,-33.7,-21.7,-36.3C-15,-38.9,-7.5,-38.8,-1.5,-36.3C4.6,-33.8,9.2,-28.9,16.4,-26.6Z" width="100%" height="100%" transform="translate(50 50)" style="transition: all 0.3s ease 0s;" stroke-width="0" stroke="url(#sw-gradient)"></path>
              </svg>