<svg xmlns="http://www.w3.org/2000/svg" width="258" height="259" viewBox="0 0 258 259" version="1.1"><path d="M 125.388 33.980 C 124.227 34.449, 122.314 36.057, 121.138 37.552 C 119.015 40.250, 119 40.646, 119 93.135 C 119 122.211, 118.652 146, 118.227 146 C 117.801 146, 113.905 142.431, 109.568 138.069 C 101.084 129.535, 98.633 128.306, 93.481 130.006 C 89.204 131.418, 87 134.863, 87 140.136 C 87 144.257, 87.372 144.715, 105.250 162.615 C 123.815 181.203, 126.195 182.903, 131.750 181.545 C 133.483 181.121, 141.247 174.138, 152.750 162.656 C 170.744 144.695, 171 144.380, 171 140.154 C 171 134.832, 169.770 132.449, 166.020 130.510 C 160.336 127.571, 158.379 128.377, 149.056 137.500 C 144.279 142.175, 140.062 146, 139.685 146 C 139.308 146, 139 122.010, 139 92.689 C 139 39.945, 138.978 39.353, 136.904 37.127 C 133.462 33.433, 129.453 32.338, 125.388 33.980 M 37.299 169.250 C 33.709 173.192, 33 175.673, 33 184.298 C 33 200.374, 36.073 209.183, 44.244 216.529 C 53.423 224.782, 49.893 224.423, 125.307 224.772 C 194.726 225.092, 199.783 224.854, 207.449 220.910 C 219.820 214.544, 225 203.715, 225 184.217 C 225 171.655, 221.995 167, 213.887 167 C 206.321 167, 204 171.225, 204 185 C 204 196.396, 202.756 200.040, 198.033 202.483 C 193.625 204.762, 64.387 204.768, 59.980 202.490 C 55.380 200.111, 54.544 197.547, 54.001 184.163 C 53.514 172.158, 53.424 171.760, 50.694 169.413 C 46.885 166.137, 40.209 166.056, 37.299 169.250" stroke="none" fill="#062c24" fill-rule="evenodd"/></svg>