<svg xmlns="http://www.w3.org/2000/svg" width="512" height="512" viewBox="0 0 512 512" version="1.1"><path d="M 222.564 1.625 C 159.836 9.658, 100.883 41.999, 59.641 91 C 30.183 126.002, 11.166 166.976, 2.961 213.128 C -0.128 230.502, -0.921 269.021, 1.441 287 C 9.245 346.415, 33.190 395.297, 74.947 437.053 C 115.258 477.363, 163.670 501.512, 221.500 510.155 C 233.573 511.959, 278.351 511.967, 290.500 510.166 C 384.596 496.222, 460.928 435.927, 495.323 348.372 C 502.525 330.039, 509.036 303.723, 510.576 286.722 C 510.964 282.444, 511.668 278.705, 512.140 278.413 C 512.613 278.121, 513 267.532, 513 254.882 C 513 242.210, 512.612 232.122, 512.136 232.416 C 511.660 232.710, 510.958 229.474, 510.574 225.225 C 509.592 214.337, 506.454 198.738, 502.442 184.800 C 481.208 111.025, 426.887 49.814, 355.898 19.667 C 334.930 10.763, 310.963 4.359, 288.030 1.536 C 272.499 -0.377, 237.824 -0.330, 222.564 1.625 M 237.422 113.127 C 237.092 113.660, 236.075 113.988, 235.161 113.856 C 234.248 113.724, 232.600 113.919, 231.500 114.289 C 230.400 114.659, 227.925 115.180, 226 115.446 C 221.127 116.121, 218.965 116.643, 215.500 117.981 C 213.850 118.619, 212.368 119.062, 212.207 118.967 C 211.888 118.777, 206.984 120.537, 203 122.270 C 201.625 122.868, 200.275 123.427, 200 123.512 C 199.725 123.598, 198.233 124.192, 196.685 124.834 C 195.137 125.475, 193.449 126, 192.935 126 C 192.421 126, 192 126.450, 192 127 C 192 127.550, 191.355 128, 190.566 128 C 189.029 128, 178.717 134.016, 178.174 135.229 C 177.994 135.630, 176.082 136.950, 173.924 138.163 C 171.766 139.376, 170 140.735, 170 141.184 C 170 141.633, 169.426 142, 168.725 142 C 166.773 142, 146.199 162.625, 140 170.797 C 132.331 180.906, 126.922 190.479, 125.359 196.707 C 125.039 197.982, 124.043 199.436, 123.147 199.938 C 122.250 200.439, 121.847 201.180, 122.250 201.583 C 122.653 201.986, 122.598 202.807, 122.127 203.408 C 120.787 205.118, 115.077 224.478, 114.432 229.500 C 114.290 230.600, 113.804 233.525, 113.352 236 C 112.327 241.605, 112.247 267.602, 113.233 275 C 114.495 284.477, 114.862 286.417, 116.832 294 C 119.227 303.218, 120.992 307.961, 125.763 318 C 127.200 321.025, 128.419 323.725, 128.471 324 C 128.524 324.275, 129.789 326.404, 131.283 328.730 C 132.777 331.057, 134 333.399, 134 333.935 C 134 334.471, 135.079 335.988, 136.398 337.307 C 137.717 338.626, 139.487 341.042, 140.332 342.675 C 142.559 346.982, 162.520 366.734, 169.967 372 C 173.467 374.475, 176.915 377.079, 177.630 377.786 C 178.344 378.493, 179.155 378.943, 179.432 378.786 C 179.709 378.629, 180.855 379.288, 181.979 380.250 C 183.103 381.213, 184.380 382, 184.816 382 C 185.252 382, 187.722 383.340, 190.304 384.978 C 192.887 386.616, 195 387.725, 195 387.443 C 195 387.161, 196.012 387.486, 197.250 388.167 C 198.488 388.847, 199.950 389.496, 200.500 389.609 C 201.050 389.722, 203.525 390.728, 206 391.843 C 208.475 392.959, 211.698 394.088, 213.162 394.353 C 214.627 394.619, 216.652 395.249, 217.662 395.755 C 220.502 397.176, 230.856 399.207, 231.916 398.552 C 232.436 398.230, 233.140 398.418, 233.480 398.968 C 233.821 399.519, 235.089 399.981, 236.300 399.995 C 237.510 400.008, 246.004 400.219, 255.175 400.462 C 264.389 400.706, 273.338 400.473, 275.175 399.941 C 277.004 399.411, 280.075 398.765, 282 398.505 C 283.925 398.245, 286.625 397.764, 288 397.437 C 289.375 397.110, 291.400 396.701, 292.500 396.527 C 293.600 396.354, 297.200 395.251, 300.500 394.075 C 303.800 392.899, 306.950 391.795, 307.500 391.622 C 313.380 389.771, 332.226 380.377, 334.708 378.061 C 335.923 376.927, 337.231 376, 337.616 376 C 340.262 376, 372 346.396, 372 343.928 C 372 343.456, 373.397 341.479, 375.104 339.535 C 376.811 337.591, 377.940 336, 377.614 336 C 377.288 336, 378.775 333.135, 380.918 329.633 C 383.062 326.131, 385.912 320.844, 387.252 317.883 C 390.764 310.122, 393.481 303.685, 393.625 302.782 C 393.694 302.352, 393.863 301.775, 394 301.500 C 394.369 300.763, 396.264 292.706, 396.470 291 C 396.503 290.725, 396.906 289.908, 397.365 289.183 C 397.825 288.459, 397.959 287.626, 397.664 287.331 C 397.369 287.036, 397.548 285.689, 398.062 284.338 C 398.575 282.987, 399.272 280.220, 399.611 278.191 C 400.464 273.072, 400.918 240.726, 400.154 239.500 C 399.811 238.950, 399.492 237.825, 399.444 237 C 399.052 230.228, 397.584 222, 396.767 222 C 396.217 222, 396.002 221.100, 396.290 220 C 396.577 218.900, 396.480 218, 396.073 218 C 395.666 218, 395.292 217.438, 395.241 216.750 C 395.020 213.753, 393.805 209.424, 392.940 208.550 C 392.423 208.028, 392 206.853, 392 205.941 C 392 205.028, 390.650 201.752, 389 198.660 C 387.350 195.568, 386 192.409, 386 191.641 C 386 190.873, 385.357 189.712, 384.572 189.060 C 383.787 188.408, 381.925 185.540, 380.436 182.687 C 378.946 179.834, 376.868 176.375, 375.817 175 C 367.988 164.754, 365 160.516, 365 159.659 C 365 159.113, 364.738 158.929, 364.417 159.250 C 363.701 159.966, 360.564 156.923, 358.995 153.990 C 358.358 152.801, 357.621 152.046, 357.355 152.311 C 357.090 152.577, 355.214 151.130, 353.187 149.097 C 351.159 147.064, 347.363 143.939, 344.750 142.152 C 342.137 140.366, 340 138.476, 340 137.952 C 340 137.428, 339.100 137, 338 137 C 336.900 137, 336 136.544, 336 135.987 C 336 135.430, 333.863 133.967, 331.250 132.737 C 328.637 131.507, 325.668 129.750, 324.651 128.834 C 323.634 127.917, 321.808 126.918, 320.593 126.613 C 319.378 126.308, 316.610 125.317, 314.442 124.411 C 312.274 123.505, 310.325 122.856, 310.112 122.968 C 309.898 123.079, 309.448 122.778, 309.112 122.297 C 308.775 121.816, 305.800 120.595, 302.500 119.582 C 299.200 118.570, 295.196 117.060, 293.602 116.227 C 291.259 115.002, 290.865 114.979, 291.544 116.106 C 292.262 117.298, 292.135 117.298, 290.668 116.107 C 289.724 115.342, 288.710 114.956, 288.416 115.251 C 288.121 115.546, 285.544 115.116, 282.690 114.296 C 276.532 112.527, 238.401 111.542, 237.422 113.127 M 0.430 256 C 0.430 268.925, 0.573 274.212, 0.747 267.750 C 0.921 261.287, 0.921 250.712, 0.747 244.250 C 0.573 237.787, 0.430 243.075, 0.430 256" stroke="none" fill="#042c24" fill-rule="evenodd"/><path d="M 237.422 113.127 C 237.092 113.660, 236.075 113.988, 235.161 113.856 C 234.248 113.724, 232.600 113.919, 231.500 114.289 C 230.400 114.659, 227.925 115.180, 226 115.446 C 221.127 116.121, 218.965 116.643, 215.500 117.981 C 213.850 118.619, 212.368 119.062, 212.207 118.967 C 211.888 118.777, 206.984 120.537, 203 122.270 C 201.625 122.868, 200.275 123.427, 200 123.512 C 199.725 123.598, 198.233 124.192, 196.685 124.834 C 195.137 125.475, 193.449 126, 192.935 126 C 192.421 126, 192 126.450, 192 127 C 192 127.550, 191.355 128, 190.566 128 C 189.029 128, 178.717 134.016, 178.174 135.229 C 177.994 135.630, 176.082 136.950, 173.924 138.163 C 171.766 139.376, 170 140.735, 170 141.184 C 170 141.633, 169.426 142, 168.725 142 C 166.773 142, 146.199 162.625, 140 170.797 C 132.331 180.906, 126.922 190.479, 125.359 196.707 C 125.039 197.982, 124.043 199.436, 123.147 199.938 C 122.250 200.439, 121.847 201.180, 122.250 201.583 C 122.653 201.986, 122.598 202.807, 122.127 203.408 C 120.787 205.118, 115.077 224.478, 114.432 229.500 C 114.290 230.600, 113.804 233.525, 113.352 236 C 112.327 241.605, 112.247 267.602, 113.233 275 C 114.495 284.477, 114.862 286.417, 116.832 294 C 119.227 303.218, 120.992 307.961, 125.763 318 C 127.200 321.025, 128.419 323.725, 128.471 324 C 128.524 324.275, 129.789 326.404, 131.283 328.730 C 132.777 331.057, 134 333.399, 134 333.935 C 134 334.471, 135.079 335.988, 136.398 337.307 C 137.717 338.626, 139.487 341.042, 140.332 342.675 C 142.559 346.982, 162.520 366.734, 169.967 372 C 173.467 374.475, 176.915 377.079, 177.630 377.786 C 178.344 378.493, 179.155 378.943, 179.432 378.786 C 179.709 378.629, 180.855 379.288, 181.979 380.250 C 183.103 381.213, 184.380 382, 184.816 382 C 185.252 382, 187.722 383.340, 190.304 384.978 C 192.887 386.616, 195 387.725, 195 387.443 C 195 387.161, 196.012 387.486, 197.250 388.167 C 198.488 388.847, 199.950 389.496, 200.500 389.609 C 201.050 389.722, 203.525 390.728, 206 391.843 C 208.475 392.959, 211.698 394.088, 213.162 394.353 C 214.627 394.619, 216.652 395.249, 217.662 395.755 C 220.502 397.176, 230.856 399.207, 231.916 398.552 C 232.436 398.230, 233.140 398.418, 233.480 398.968 C 233.821 399.519, 235.089 399.981, 236.300 399.995 C 237.510 400.008, 246.004 400.219, 255.175 400.462 C 264.389 400.706, 273.338 400.473, 275.175 399.941 C 277.004 399.411, 280.075 398.765, 282 398.505 C 283.925 398.245, 286.625 397.764, 288 397.437 C 289.375 397.110, 291.400 396.701, 292.500 396.527 C 293.600 396.354, 297.200 395.251, 300.500 394.075 C 303.800 392.899, 306.950 391.795, 307.500 391.622 C 313.380 389.771, 332.226 380.377, 334.708 378.061 C 335.923 376.927, 337.231 376, 337.616 376 C 340.262 376, 372 346.396, 372 343.928 C 372 343.456, 373.397 341.479, 375.104 339.535 C 376.811 337.591, 377.940 336, 377.614 336 C 377.288 336, 378.775 333.135, 380.918 329.633 C 383.062 326.131, 385.912 320.844, 387.252 317.883 C 390.764 310.122, 393.481 303.685, 393.625 302.782 C 393.694 302.352, 393.863 301.775, 394 301.500 C 394.369 300.763, 396.264 292.706, 396.470 291 C 396.503 290.725, 396.906 289.908, 397.365 289.183 C 397.825 288.459, 397.959 287.626, 397.664 287.331 C 397.369 287.036, 397.548 285.689, 398.062 284.338 C 398.575 282.987, 399.272 280.220, 399.611 278.191 C 400.464 273.072, 400.918 240.726, 400.154 239.500 C 399.811 238.950, 399.492 237.825, 399.444 237 C 399.052 230.228, 397.584 222, 396.767 222 C 396.217 222, 396.002 221.100, 396.290 220 C 396.577 218.900, 396.480 218, 396.073 218 C 395.666 218, 395.292 217.438, 395.241 216.750 C 395.020 213.753, 393.805 209.424, 392.940 208.550 C 392.423 208.028, 392 206.853, 392 205.941 C 392 205.028, 390.650 201.752, 389 198.660 C 387.350 195.568, 386 192.409, 386 191.641 C 386 190.873, 385.357 189.712, 384.572 189.060 C 383.787 188.408, 381.925 185.540, 380.436 182.687 C 378.946 179.834, 376.868 176.375, 375.817 175 C 367.988 164.754, 365 160.516, 365 159.659 C 365 159.113, 364.738 158.929, 364.417 159.250 C 363.701 159.966, 360.564 156.923, 358.995 153.990 C 358.358 152.801, 357.621 152.046, 357.355 152.311 C 357.090 152.577, 355.214 151.130, 353.187 149.097 C 351.159 147.064, 347.363 143.939, 344.750 142.152 C 342.137 140.366, 340 138.476, 340 137.952 C 340 137.428, 339.100 137, 338 137 C 336.900 137, 336 136.544, 336 135.987 C 336 135.430, 333.863 133.967, 331.250 132.737 C 328.637 131.507, 325.668 129.750, 324.651 128.834 C 323.634 127.917, 321.808 126.918, 320.593 126.613 C 319.378 126.308, 316.610 125.317, 314.442 124.411 C 312.274 123.505, 310.325 122.856, 310.112 122.968 C 309.898 123.079, 309.448 122.778, 309.112 122.297 C 308.775 121.816, 305.800 120.595, 302.500 119.582 C 299.200 118.570, 295.196 117.060, 293.602 116.227 C 291.259 115.002, 290.865 114.979, 291.544 116.106 C 292.262 117.298, 292.135 117.298, 290.668 116.107 C 289.724 115.342, 288.710 114.956, 288.416 115.251 C 288.121 115.546, 285.544 115.116, 282.690 114.296 C 276.532 112.527, 238.401 111.542, 237.422 113.127" stroke="none" fill="#dcfb9b" fill-rule="evenodd"/></svg>