<svg version="1.1" id="Layer_1" xmlns="http://www.w3.org/2000/svg" xmlns:xlink="http://www.w3.org/1999/xlink" x="0px" y="0px"
	 width="100%" viewBox="0 0 497 650" enable-background="new 0 0 497 650" xml:space="preserve">
<path fill="#FFFFFF" opacity="1.000000" stroke="none" 
	d="
M312.000000,651.000000 
	C268.979095,651.000000 225.958206,651.000000 182.341614,650.687378 
	C171.663864,642.923035 161.616882,635.422424 151.428787,628.118713 
	C150.669312,627.574280 148.525345,627.998413 147.663055,628.727234 
	C144.009155,631.815735 140.701447,635.312195 137.065643,638.424072 
	C133.507065,641.469910 133.040558,644.604614 135.872467,648.336365 
	C136.437393,649.080811 136.633698,650.104858 137.000000,651.000000 
	C91.688805,651.000000 46.377617,651.000000 1.062179,651.000000 
	C1.057936,434.333313 1.057936,217.666656 1.057936,1.000000 
	C37.431477,1.000000 73.747078,1.000000 110.491745,1.377256 
	C108.482864,9.110038 105.411812,16.230183 108.144112,24.396925 
	C113.591118,40.677826 123.554230,54.070557 135.036880,66.294655 
	C148.680527,80.819298 164.884949,91.458679 184.925797,95.407455 
	C183.668884,96.523277 182.538162,97.459457 181.246841,98.035873 
	C168.687210,103.642174 156.050644,109.080719 143.582901,114.882759 
	C141.958115,115.638870 141.162674,118.177116 139.676971,120.080124 
	C125.198990,128.606873 111.003906,136.904755 96.908943,145.369354 
	C95.995689,145.917801 95.269417,147.849594 95.460823,148.965591 
	C96.048584,152.392609 97.006622,155.774139 98.079735,159.089539 
	C98.429993,160.171646 99.595566,161.826691 100.353668,161.808105 
	C106.655312,161.653748 108.559479,166.341080 111.149689,170.700745 
	C118.447319,182.983582 128.386581,192.869034 141.331390,198.817062 
	C153.091904,204.220917 165.611099,203.470337 178.043945,200.059784 
	C182.790680,209.284576 187.401535,218.156769 191.582764,227.038757 
	C177.596390,227.195389 167.228821,232.894440 160.703827,245.158798 
	C152.077942,241.276352 143.652115,239.384293 135.707626,242.906555 
	C131.507965,237.390472 128.253876,231.894135 123.852020,227.564789 
	C110.859230,214.785965 85.441360,218.904114 76.634041,234.859879 
	C74.663795,238.429260 73.963982,243.317581 68.112190,242.742477 
	C67.834938,242.715210 67.457176,243.710632 66.611519,245.037201 
	C73.943436,245.477325 71.977173,250.912903 73.335594,255.091705 
	C75.179543,260.764130 77.862068,266.922150 82.049469,270.918030 
	C91.005348,279.464355 102.202393,282.322449 114.296860,277.945770 
	C125.894798,273.748718 132.608109,265.236267 134.779541,253.101669 
	C136.207718,245.120438 136.377380,245.003067 144.412231,244.962555 
	C145.910416,244.955002 147.422531,244.868454 148.904877,245.031128 
	C157.436066,245.967438 159.154221,247.712051 158.941956,256.057709 
	C158.674866,266.558014 162.987808,274.565491 171.285141,280.784943 
	C187.761261,293.134979 213.413300,285.537079 219.233002,266.280762 
	C220.475159,262.170746 221.498428,258.609863 226.355606,257.873901 
	C226.499146,257.852173 226.562408,257.300659 226.923584,256.208405 
	C222.197617,255.653702 219.397263,253.062714 220.290741,248.009216 
	C225.989471,248.663269 231.216980,249.662094 236.480835,249.920486 
	C258.083984,250.981003 279.222260,248.499039 299.509003,240.625412 
	C302.504883,239.462677 305.192657,237.506012 308.382111,235.971954 
	C313.890167,238.390793 319.039124,240.754333 323.961151,243.385818 
	C318.893646,246.211105 313.788849,248.373306 309.262054,251.400009 
	C295.751801,260.433319 282.468201,269.805603 268.619019,279.028259 
	C249.457779,278.108398 231.040070,280.528412 213.074265,285.154785 
	C190.011017,291.093750 167.224213,298.115723 144.384598,304.894562 
	C142.654282,305.408112 140.167984,307.745789 140.217697,309.158691 
	C140.489929,316.896118 141.444611,324.609589 141.961517,332.591309 
	C136.696899,336.631104 131.657944,340.441284 126.563721,344.176086 
	C124.406326,345.757812 123.581680,347.459076 124.893654,350.096130 
	C126.964447,354.258392 128.642227,358.620636 130.808731,362.728180 
	C131.493820,364.027039 133.572830,365.880096 134.393768,365.608093 
	C139.621887,363.875732 140.940125,367.955414 143.080261,370.887329 
	C153.157013,384.692169 162.062897,399.480164 176.000229,410.420776 
	C178.293869,415.763092 180.529541,420.755188 182.876556,425.694397 
	C186.925262,434.214813 193.540421,440.170593 202.218613,443.497925 
	C214.517761,448.213593 227.321503,450.836456 240.546387,450.982880 
	C248.707382,451.073273 256.870209,450.996399 265.099121,451.409058 
	C265.370056,458.493164 265.574097,465.162811 265.450928,471.840454 
	C260.125427,467.771759 255.045410,463.789764 250.163406,459.578217 
	C247.737015,457.485046 245.839828,457.725891 243.659897,459.805634 
	C241.983398,461.405060 240.055252,462.737427 238.285583,464.243286 
	C235.273346,466.806488 232.568329,469.380280 234.781799,474.007507 
	C235.220840,474.925293 234.275436,476.853943 233.473434,477.956268 
	C230.058273,482.650177 226.457108,487.208801 222.586761,491.744934 
	C212.341843,487.799591 202.397659,484.015167 192.547501,480.000061 
	C189.461044,478.741974 187.618500,479.459717 185.969193,482.209869 
	C183.231705,486.774536 180.005127,491.066956 177.553925,495.770721 
	C176.696808,497.415527 176.658356,500.820099 177.747070,501.881592 
	C180.411026,504.479034 179.659973,506.591888 178.627808,509.421417 
	C172.823425,525.333252 167.040787,541.256470 161.562103,557.282288 
	C158.124420,567.337952 160.280807,576.598816 166.728287,584.982361 
	C178.878662,600.781372 193.753662,613.007874 212.789032,619.503479 
	C228.203613,624.763489 243.632217,624.787354 258.283325,617.005066 
	C265.750763,613.038574 272.703979,608.090088 279.814087,603.469177 
	C285.946533,599.483704 291.691376,594.806824 298.113861,591.386108 
	C306.629730,586.850464 316.325470,591.641418 318.024658,601.147827 
	C318.783875,605.395264 317.962097,610.000732 317.422882,614.390320 
	C315.918640,626.635681 309.355927,638.130981 312.000000,651.000000 
z"/>
<path fill="#FFFFFF" opacity="1.000000" stroke="none" 
	d="
M498.000000,570.000000 
	C498.000000,596.898621 498.000000,623.797302 498.000000,651.000000 
	C486.314209,651.000000 474.625763,651.000000 462.296753,650.717163 
	C455.522339,644.598572 449.521942,638.614441 443.229187,632.955383 
	C425.615204,617.115295 406.745697,603.098145 384.639313,594.020142 
	C371.143433,588.478149 357.569855,583.125305 343.974487,577.370422 
	C332.186981,563.927368 324.356415,548.326904 316.409821,533.033447 
	C327.530457,533.992371 338.268860,535.975464 348.954590,535.723511 
	C364.951080,535.346313 379.178741,529.623718 389.772675,516.894409 
	C396.893768,508.337921 403.923157,499.702728 410.864166,490.999512 
	C414.953461,485.872040 420.199707,483.442474 426.582428,484.348938 
	C433.593018,485.344543 438.378357,489.389923 440.383026,496.365631 
	C441.299530,499.554901 442.047607,502.796814 443.070374,505.950500 
	C446.698059,517.136597 449.078583,528.980408 454.390961,539.310242 
	C463.324249,556.680786 479.984009,564.681396 498.000000,570.000000 
z"/>
<path fill="#FFFFFF" opacity="1.000000" stroke="none" 
	d="
M436.000000,0.999995 
	C456.548706,1.000000 477.097382,1.000000 498.000000,1.000000 
	C498.000000,6.013656 498.000000,11.035630 497.560699,16.522675 
	C479.850983,16.656269 462.578857,16.389843 445.311615,15.936983 
	C441.963196,15.849164 439.831360,16.815531 439.150940,20.199467 
	C437.357971,29.116722 435.584961,38.037991 433.429626,46.976307 
	C427.979736,49.022175 422.892395,51.020218 417.831390,53.082954 
	C408.472137,56.897575 399.342804,61.434902 389.733368,64.443909 
	C369.862976,70.665924 349.479858,73.938889 328.505859,73.076927 
	C317.697021,72.632736 306.851288,72.845375 296.029816,73.092812 
	C292.673676,73.169540 289.342438,74.336395 285.721863,74.824265 
	C280.609985,69.407341 275.331360,64.508591 271.036285,58.861736 
	C262.514832,47.658344 254.569748,36.017868 246.320908,24.605400 
	C240.604019,16.695917 234.777512,8.865664 229.000000,1.000003 
	C247.020889,1.000000 265.041779,1.000000 283.654083,1.310673 
	C288.733398,5.784587 293.021515,10.192293 297.751831,14.059019 
	C306.958099,21.584558 317.056427,25.678818 328.948578,20.447172 
	C335.312347,17.647585 341.650055,14.788819 348.334534,11.971255 
	C349.116699,11.983518 349.563873,11.981286 350.208923,12.250552 
	C361.171204,20.078123 373.112732,24.950382 385.890625,27.763680 
	C392.925934,29.312639 400.650421,30.897810 406.659943,26.300335 
	C416.899109,18.467052 426.266388,9.494125 436.000000,0.999995 
z"/>
<path fill="#FFFFFF" opacity="1.000000" stroke="none" 
	d="
M498.000000,194.000000 
	C498.000000,212.354233 498.000000,230.708450 497.532104,249.531281 
	C483.867371,250.685379 470.657135,251.185150 457.479126,252.132538 
	C450.594482,252.627457 443.728546,253.709167 436.941986,254.990952 
	C435.433258,255.275909 433.613068,257.308594 433.123322,258.901550 
	C432.022919,262.480347 431.667297,266.288116 430.623505,270.045258 
	C423.467712,272.236053 416.747223,274.564575 409.909668,276.473755 
	C404.731720,277.919464 399.404449,278.830292 394.092377,279.565033 
	C391.946686,270.303680 389.813354,261.465271 387.806580,252.598206 
	C387.552643,251.476135 387.516327,249.515030 388.137177,249.112854 
	C392.183868,246.491638 391.170441,243.422958 389.479034,240.041595 
	C388.146790,237.378235 386.847015,234.672760 385.851746,231.872635 
	C384.282623,227.458099 381.659637,226.219009 377.060486,227.508972 
	C372.496002,228.789215 367.696014,229.229736 363.189636,229.757721 
	C370.423889,225.065918 377.456055,220.635941 384.517761,216.253525 
	C387.247589,214.559418 389.745483,213.311234 393.107422,215.773224 
	C394.371918,216.699203 397.904083,215.960953 399.463776,214.761154 
	C403.001465,212.039764 405.817322,208.402740 409.189026,205.436188 
	C412.309326,202.690872 412.488129,200.267792 409.995422,196.906082 
	C399.215576,182.368240 388.621277,167.692856 378.121887,152.750702 
	C378.951263,151.972290 379.557953,151.350769 380.294312,151.073227 
	C390.874207,147.085526 398.221771,139.882797 401.791290,129.118683 
	C403.010315,125.442688 403.602600,121.558868 404.681732,116.905586 
	C408.036682,121.604294 411.047760,125.687469 413.919159,129.866653 
	C424.976746,145.960602 435.071472,162.830872 450.202087,175.674896 
	C463.964783,187.357666 479.889801,193.571564 498.000000,194.000000 
z"/>
<path fill="#FFFFFF" opacity="1.000000" stroke="none" 
	d="
M121.000000,1.000000 
	C153.354233,1.000000 185.708450,1.000000 218.548309,1.349162 
	C221.044968,4.313818 223.174622,6.847483 225.045624,9.559586 
	C231.626602,19.098974 238.907822,28.268513 244.438171,38.389881 
	C250.869629,50.160423 249.946533,62.256920 237.030701,70.504227 
	C233.675613,72.646591 230.574371,75.199600 227.159286,77.232666 
	C208.949722,88.073158 190.011475,91.559090 169.731079,83.108833 
	C154.437988,76.736649 142.283249,66.393120 131.960480,53.793865 
	C119.176277,38.190350 113.836273,20.842085 121.000000,1.000000 
z"/>
<path fill="#FEFFFF" opacity="1.000000" stroke="none" 
	d="
M498.000000,423.000000 
	C498.000000,436.687561 498.000000,450.375122 497.539612,464.611328 
	C482.944855,464.727234 468.810333,464.298981 454.676422,463.852295 
	C453.682831,463.820892 452.694702,463.640289 451.702026,463.551331 
	C431.970093,461.783051 413.453644,455.824280 395.183197,448.334991 
	C372.262024,438.939362 348.888550,430.687317 324.060181,427.496399 
	C327.420563,424.095459 330.747711,421.024658 334.345490,418.162903 
	C337.067200,419.912048 339.328186,422.087433 342.000854,422.887329 
	C357.170471,427.427307 372.820557,427.519257 388.436493,426.840454 
	C394.307587,426.585266 399.967499,424.740692 402.730103,418.504486 
	C409.731140,402.700531 412.311798,385.810883 415.035706,368.943909 
	C415.677490,364.969910 413.682220,363.457947 410.252197,363.037079 
	C401.712860,361.989349 393.157501,361.068634 384.626038,359.962250 
	C381.092377,359.503937 377.603302,358.701660 374.378326,357.883362 
	C376.477570,356.032349 378.490051,354.520752 380.073242,352.646545 
	C387.048645,344.389008 389.599945,334.662750 389.570251,324.016968 
	C396.381348,325.206635 400.337860,329.786926 403.334717,334.902588 
	C412.295715,350.199219 420.741547,365.796936 429.634949,381.134216 
	C434.730865,389.922424 441.153015,397.664490 449.135895,404.113953 
	C463.431488,415.663544 480.115753,420.836945 498.000000,423.000000 
z"/>
<path fill="#74CAD4" opacity="1.000000" stroke="none" 
	d="
M344.031158,577.687561 
	C357.569855,583.125305 371.143433,588.478149 384.639313,594.020142 
	C406.745697,603.098145 425.615204,617.115295 443.229187,632.955383 
	C449.521942,638.614441 455.522339,644.598572 461.828064,650.717163 
	C454.979034,651.000000 447.958099,651.000000 440.435211,650.621277 
	C437.946503,645.909729 436.775818,640.901306 433.839539,637.354553 
	C415.774597,615.534241 390.805054,604.886841 364.670288,595.565063 
	C362.291931,594.938721 360.189819,594.588074 358.092316,594.211426 
	C348.969879,592.573425 338.145813,597.676147 335.617004,605.035400 
	C333.675690,608.082458 331.647461,610.706421 330.154175,613.605896 
	C324.115387,625.331482 320.823792,637.839722 320.000000,651.000000 
	C317.629425,651.000000 315.258881,651.000000 312.444153,651.000000 
	C309.355927,638.130981 315.918640,626.635681 317.422882,614.390320 
	C317.962097,610.000732 318.783875,605.395264 318.024658,601.147827 
	C316.325470,591.641418 306.629730,586.850464 298.113861,591.386108 
	C291.691376,594.806824 285.946533,599.483704 279.814087,603.469177 
	C272.703979,608.090088 265.750763,613.038574 258.283325,617.005066 
	C243.632217,624.787354 228.203613,624.763489 212.789032,619.503479 
	C193.753662,613.007874 178.878662,600.781372 166.728287,584.982361 
	C160.280807,576.598816 158.124420,567.337952 161.562103,557.282288 
	C167.040787,541.256470 172.823425,525.333252 178.627808,509.421417 
	C179.659973,506.591888 180.411026,504.479034 177.747070,501.881592 
	C176.658356,500.820099 176.696808,497.415527 177.553925,495.770721 
	C180.005127,491.066956 183.231705,486.774536 185.969193,482.209869 
	C187.618500,479.459717 189.461044,478.741974 192.547501,480.000061 
	C202.397659,484.015167 212.341843,487.799591 222.888809,491.923889 
	C225.005386,492.794800 226.482864,493.414948 228.183899,494.294556 
	C255.746353,506.309937 278.228516,524.760132 299.215881,545.414307 
	C306.511871,552.594421 314.280670,559.427368 322.535889,565.457275 
	C329.149902,570.288452 336.826263,573.665283 344.031158,577.687561 
M221.445831,501.373840 
	C219.661926,501.227142 217.878021,501.080414 215.175446,500.778595 
	C207.173172,500.103546 199.845795,501.949097 193.890213,507.440125 
	C178.193726,521.912231 171.575317,540.674561 170.258133,561.301880 
	C169.464005,573.738037 174.054047,585.013123 183.186722,593.714172 
	C201.375946,611.043823 222.419464,619.900085 247.816528,613.014832 
	C262.506866,609.032166 273.472748,599.337769 283.750305,587.736084 
	C285.901581,584.579102 288.052856,581.422119 290.779510,577.855164 
	C291.887878,576.036255 293.372620,574.345093 294.040588,572.376831 
	C297.203369,563.056763 294.180450,554.914734 288.306793,547.785400 
	C275.552094,532.304016 259.550476,520.587280 242.544434,510.346161 
	C236.271225,506.568420 228.875214,504.655182 221.445831,501.373840 
M196.643936,494.115723 
	C194.599548,492.553223 192.708847,490.662903 190.432281,489.595612 
	C189.567215,489.190063 187.814713,490.677460 186.466690,491.302124 
	C188.363449,493.364227 189.965820,495.883392 192.245163,497.351501 
	C194.261642,498.650299 196.927719,498.592194 196.643936,494.115723 
z"/>
<path fill="#F1F9FA" opacity="1.000000" stroke="none" 
	d="
M498.000000,193.562500 
	C479.889801,193.571564 463.964783,187.357666 450.202087,175.674896 
	C435.071472,162.830872 424.976746,145.960602 413.919159,129.866653 
	C411.047760,125.687469 408.036682,121.604294 404.681732,116.905586 
	C403.602600,121.558868 403.010315,125.442688 401.791290,129.118683 
	C398.221771,139.882797 390.874207,147.085526 380.294312,151.073227 
	C379.557953,151.350769 378.951263,151.972290 377.845703,152.596161 
	C376.899231,151.870789 376.391357,150.983154 376.219818,149.936523 
	C389.125519,145.257141 396.922882,136.568054 399.709259,123.427292 
	C401.783081,113.646835 398.088470,108.019524 388.817963,107.021805 
	C378.973602,105.962326 368.582520,112.978432 366.082611,122.513496 
	C364.909607,126.987633 364.003662,131.531799 362.681885,135.888824 
	C356.914948,130.525635 351.442780,125.317863 345.980957,119.679092 
	C345.052551,114.890747 344.113831,110.533394 342.928925,105.033356 
	C339.490631,107.608604 337.200836,109.323631 334.572693,110.992126 
	C331.810059,108.991119 329.385712,107.036636 327.159363,104.792473 
	C330.612762,102.718544 333.868256,100.934296 338.662384,98.306747 
	C334.720703,95.730888 331.868225,93.866837 328.831604,91.676117 
	C327.962708,89.129242 327.218170,86.925293 326.608643,84.684624 
	C325.876923,81.994835 324.287018,81.253632 321.472534,81.254669 
	C311.361450,81.258415 301.250214,80.901131 291.066742,80.359406 
	C289.329559,78.360397 287.664703,76.682281 285.999817,75.004166 
	C289.342438,74.336395 292.673676,73.169540 296.029816,73.092812 
	C306.851288,72.845375 317.697021,72.632736 328.505859,73.076927 
	C349.479858,73.938889 369.862976,70.665924 389.733368,64.443909 
	C399.342804,61.434902 408.472137,56.897575 417.831390,53.082954 
	C422.892395,51.020218 427.979736,49.022175 433.486755,47.364372 
	C435.312653,49.671310 436.561829,51.740376 438.154602,53.498100 
	C439.144012,54.589981 440.653992,55.210106 441.622894,56.173641 
	C438.797333,57.909309 436.221649,59.430328 433.770355,61.130680 
	C416.870331,72.853508 412.189392,87.194878 419.138458,106.008339 
	C421.781586,113.164268 424.297241,120.382637 427.312195,127.382507 
	C432.811279,140.149734 440.692535,151.412964 450.165344,161.545059 
	C451.003296,162.441299 452.703003,162.531860 454.303894,163.140411 
	C457.125122,165.405823 459.490387,167.752090 462.191650,169.609741 
	C473.239410,177.207138 484.861877,183.680267 498.000000,187.000000 
	C498.000000,189.041672 498.000000,191.083328 498.000000,193.562500 
z"/>
<path fill="#74CAD4" opacity="1.000000" stroke="none" 
	d="
M324.026947,427.826477 
	C348.888550,430.687317 372.262024,438.939362 395.183197,448.334991 
	C413.453644,455.824280 431.970093,461.783051 451.702026,463.551331 
	C452.694702,463.640289 453.682831,463.820892 454.676422,463.852295 
	C468.810333,464.298981 482.944855,464.727234 497.539612,465.079956 
	C498.000000,467.370575 498.000000,469.741119 497.566833,472.496643 
	C489.520966,472.908630 481.858826,472.392151 474.306244,473.079529 
	C460.013062,474.380371 453.293732,482.040100 453.028656,496.287964 
	C452.945129,500.777466 452.716949,505.289642 453.038635,509.756592 
	C454.048553,523.779297 458.828735,536.225342 468.770416,546.502136 
	C476.969177,554.977234 487.079193,560.135742 498.000000,564.000000 
	C498.000000,565.714355 498.000000,567.428711 498.000000,569.571533 
	C479.984009,564.681396 463.324249,556.680786 454.390961,539.310242 
	C449.078583,528.980408 446.698059,517.136597 443.070374,505.950500 
	C442.047607,502.796814 441.299530,499.554901 440.383026,496.365631 
	C438.378357,489.389923 433.593018,485.344543 426.582428,484.348938 
	C420.199707,483.442474 414.953461,485.872040 410.864166,490.999512 
	C403.923157,499.702728 396.893768,508.337921 389.772675,516.894409 
	C379.178741,529.623718 364.951080,535.346313 348.954590,535.723511 
	C338.268860,535.975464 327.530457,533.992371 316.145996,532.775452 
	C304.221069,527.784729 292.752228,523.467163 281.778412,518.131592 
	C273.074524,513.899597 269.089325,505.876160 267.934845,496.372711 
	C267.356812,491.614624 266.460480,486.895172 265.798035,481.699463 
	C265.851379,478.104614 265.814758,474.968536 265.778137,471.832458 
	C265.574097,465.162811 265.370056,458.493164 265.118286,451.024994 
	C264.311737,449.376099 263.493744,448.570648 262.806519,447.665894 
	C261.385223,445.794708 260.033569,443.870636 258.770599,441.560852 
	C259.632050,437.243530 260.494751,433.351562 261.088043,429.418976 
	C261.725372,425.194672 263.857788,423.695007 268.202759,423.961578 
	C281.786865,424.795013 295.392731,425.273926 309.406097,425.969727 
	C314.557007,426.641632 319.291992,427.234070 324.026947,427.826477 
M299.027130,520.572327 
	C299.354340,520.753662 299.681519,520.934998 300.434204,521.676697 
	C303.254120,522.484558 306.074036,523.292358 309.535461,524.436829 
	C312.642670,525.495972 315.680695,526.879517 318.868774,527.559509 
	C334.959747,530.991760 350.950043,531.309143 366.287445,524.332458 
	C386.186432,515.280762 395.563324,498.092896 401.059875,478.139069 
	C401.651154,475.992706 401.640717,473.529053 401.301849,471.305145 
	C400.043915,463.049011 394.231354,458.075958 387.438507,454.702118 
	C364.003204,443.062378 339.255096,435.778870 312.380707,433.338470 
	C306.157471,433.984131 299.794495,434.028351 293.747681,435.433289 
	C286.771332,437.054230 281.230499,441.326752 277.311707,448.387146 
	C272.283997,458.757568 270.651886,469.564941 273.003693,481.756897 
	C273.389008,484.226379 273.774353,486.695831 274.115356,489.902618 
	C275.256073,493.187927 276.007172,496.678680 277.610596,499.720062 
	C282.421387,508.845093 288.653015,516.645447 299.007812,520.013428 
	C299.007812,520.013428 298.954834,520.008240 299.027130,520.572327 
M276.798828,435.788086 
	C273.851288,434.584229 270.951813,433.223999 267.920746,432.291687 
	C267.205353,432.071655 265.765869,433.099945 265.202209,433.924866 
	C264.885590,434.388245 265.445526,435.819763 266.013336,436.455048 
	C268.618835,439.370026 273.763977,439.347992 276.798828,435.788086 
z"/>
<path fill="#FEFFFF" opacity="1.000000" stroke="none" 
	d="
M498.000000,262.000000 
	C498.000000,310.020905 498.000000,358.041779 497.622040,406.538696 
	C477.133881,399.645477 464.552002,385.241577 458.492279,365.063721 
	C466.614594,364.306183 472.630463,360.793610 477.301483,354.535126 
	C484.411194,345.009094 489.217529,334.715607 489.058685,322.708923 
	C490.792938,321.795563 492.300507,321.001556 493.957825,320.128693 
	C491.380829,318.887024 488.096710,318.410797 487.243713,316.713104 
	C481.941772,306.160431 472.741547,303.378510 462.072235,302.923615 
	C458.995728,302.792419 455.930756,302.391449 452.949768,301.730408 
	C453.383636,300.070160 453.722687,298.792145 454.073517,297.517365 
	C459.978424,276.059570 476.092163,263.711609 498.000000,262.000000 
z"/>
<path fill="#BAE4E9" opacity="1.000000" stroke="none" 
	d="
M498.000000,186.550018 
	C484.861877,183.680267 473.239410,177.207138 462.191650,169.609741 
	C459.490387,167.752090 457.125122,165.405823 454.150696,162.842514 
	C449.127991,157.468170 445.394775,152.211807 444.782593,145.122971 
	C444.029968,136.407776 442.818481,127.732193 441.859528,118.631363 
	C441.870880,117.128098 441.828033,116.032944 441.779602,114.527832 
	C441.535431,111.993431 441.057617,109.864326 441.098907,107.745338 
	C441.298279,97.503433 441.637268,87.264244 441.953308,76.571960 
	C441.967285,73.407501 441.954712,70.695168 441.964111,67.523972 
	C441.967499,63.390720 441.948914,59.716351 441.930328,56.041977 
	C440.653992,55.210106 439.144012,54.589981 438.154602,53.498100 
	C436.561829,51.740376 435.312653,49.671310 433.861145,47.345726 
	C435.584961,38.037991 437.357971,29.116722 439.150940,20.199467 
	C439.831360,16.815531 441.963196,15.849164 445.311615,15.936983 
	C462.578857,16.389843 479.850983,16.656269 497.560699,16.993874 
	C498.000000,21.024544 498.000000,25.049089 497.570618,29.540995 
	C485.073547,30.920404 475.119781,36.067383 466.885620,45.306385 
	C464.476929,49.065186 462.248505,52.538212 459.748474,56.237156 
	C450.299438,77.971809 449.005890,100.229057 453.118042,123.399384 
	C454.301575,128.089249 455.357086,132.440216 456.779907,136.667526 
	C463.697357,157.219666 477.602478,170.861740 498.000000,178.000000 
	C498.000000,180.700012 498.000000,183.400024 498.000000,186.550018 
M459.807526,37.624092 
	C459.784882,36.176193 460.313538,34.360916 459.638428,33.347809 
	C457.423096,30.023335 450.868896,28.279623 447.097260,29.947897 
	C445.835083,30.506191 444.280884,32.003799 444.189819,33.175388 
	C444.092255,34.430508 445.389771,36.787758 446.377289,36.961040 
	C450.594604,37.701080 454.922302,37.811855 459.807526,37.624092 
z"/>
<path fill="#FEFFFF" opacity="1.000000" stroke="none" 
	d="
M498.000000,563.531372 
	C487.079193,560.135742 476.969177,554.977234 468.770416,546.502136 
	C458.828735,536.225342 454.048553,523.779297 453.038635,509.756592 
	C452.716949,505.289642 452.945129,500.777466 453.028656,496.287964 
	C453.293732,482.040100 460.013062,474.380371 474.306244,473.079529 
	C481.858826,472.392151 489.520966,472.908630 497.566833,472.940796 
	C498.000000,503.020905 498.000000,533.041809 498.000000,563.531372 
z"/>
<path fill="#BAE4E9" opacity="1.000000" stroke="none" 
	d="
M285.721863,74.824265 
	C287.664703,76.682281 289.329559,78.360397 290.604187,80.468384 
	C279.882721,82.278236 269.551514,83.658226 258.850464,84.915039 
	C252.976273,81.673592 247.228088,81.053696 241.210419,83.081177 
	C236.175583,84.777519 231.155045,86.520233 226.091095,88.125450 
	C212.716171,92.365173 199.503845,97.626740 184.977463,95.060883 
	C164.884949,91.458679 148.680527,80.819298 135.036880,66.294655 
	C123.554230,54.070557 113.591118,40.677826 108.144112,24.396925 
	C105.411812,16.230183 108.482864,9.110038 110.960403,1.377256 
	C114.030594,1.000000 117.061188,1.000000 120.545891,1.000000 
	C113.836273,20.842085 119.176277,38.190350 131.960480,53.793865 
	C142.283249,66.393120 154.437988,76.736649 169.731079,83.108833 
	C190.011475,91.559090 208.949722,88.073158 227.159286,77.232666 
	C230.574371,75.199600 233.675613,72.646591 237.030701,70.504227 
	C249.946533,62.256920 250.869629,50.160423 244.438171,38.389881 
	C238.907822,28.268513 231.626602,19.098974 225.045624,9.559586 
	C223.174622,6.847483 221.044968,4.313818 219.016968,1.349162 
	C222.030594,1.000000 225.061188,1.000000 228.545883,1.000003 
	C234.777512,8.865664 240.604019,16.695917 246.320908,24.605400 
	C254.569748,36.017868 262.514832,47.658344 271.036285,58.861736 
	C275.331360,64.508591 280.609985,69.407341 285.721863,74.824265 
z"/>
<path fill="#FFFFFF" opacity="1.000000" stroke="none" 
	d="
M320.468658,651.000000 
	C320.823792,637.839722 324.115387,625.331482 330.154175,613.605896 
	C331.647461,610.706421 333.675690,608.082458 335.962646,604.987000 
	C344.837006,597.470886 351.314148,597.176697 360.867676,603.210693 
	C373.721161,611.329041 383.524628,622.751099 393.666351,633.720825 
	C398.431976,638.875549 401.928406,645.203674 406.000000,651.000000 
	C377.645782,651.000000 349.291534,651.000000 320.468658,651.000000 
z"/>
<path fill="#FDFEFE" opacity="1.000000" stroke="none" 
	d="
M453.159363,123.003464 
	C449.005890,100.229057 450.299438,77.971809 460.070770,56.372704 
	C462.078552,56.152489 463.501953,56.087509 464.904846,55.882507 
	C475.938751,54.270107 486.968781,52.630928 498.000000,51.000000 
	C498.000000,69.020897 498.000000,87.041786 497.654846,105.565292 
	C494.547241,108.375641 491.850128,110.767365 489.010681,112.976128 
	C478.439148,121.199524 466.199768,123.556198 453.159363,123.003464 
z"/>
<path fill="#FFFFFF" opacity="1.000000" stroke="none" 
	d="
M453.118042,123.399384 
	C466.199768,123.556198 478.439148,121.199524 489.010681,112.976128 
	C491.850128,110.767365 494.547241,108.375641 497.654846,106.033951 
	C498.000000,129.687561 498.000000,153.375122 498.000000,177.531342 
	C477.602478,170.861740 463.697357,157.219666 456.779907,136.667526 
	C455.357086,132.440216 454.301575,128.089249 453.118042,123.399384 
z"/>
<path fill="#BAE4E9" opacity="1.000000" stroke="none" 
	d="
M498.000000,261.539368 
	C476.092163,263.711609 459.978424,276.059570 454.073517,297.517365 
	C453.722687,298.792145 453.383636,300.070160 452.528961,301.710754 
	C448.319275,302.354553 444.619690,302.634247 440.876099,302.523712 
	C440.545197,300.197815 440.482544,298.190094 439.891846,296.352020 
	C439.504120,295.145599 438.556763,293.881561 437.503418,293.174866 
	C435.146179,291.593353 432.566071,290.344025 430.055756,288.508545 
	C430.359344,282.039368 430.683929,276.021027 431.008514,270.002686 
	C431.667297,266.288116 432.022919,262.480347 433.123322,258.901550 
	C433.613068,257.308594 435.433258,255.275909 436.941986,254.990952 
	C443.728546,253.709167 450.594482,252.627457 457.479126,252.132538 
	C470.657135,251.185150 483.867371,250.685379 497.532104,249.999939 
	C498.000000,253.692917 498.000000,257.385834 498.000000,261.539368 
M437.682465,269.990204 
	C438.201874,275.620056 446.839355,279.097351 452.245239,275.852905 
	C455.717316,273.769104 455.816467,270.923889 452.106964,269.173920 
	C447.545532,267.021942 442.730347,265.685089 437.682465,269.990204 
z"/>
<path fill="#F1F9FA" opacity="1.000000" stroke="none" 
	d="
M498.000000,422.571533 
	C480.115753,420.836945 463.431488,415.663544 449.135895,404.113953 
	C441.153015,397.664490 434.730865,389.922424 429.634949,381.134216 
	C420.741547,365.796936 412.295715,350.199219 403.334717,334.902588 
	C400.337860,329.786926 396.381348,325.206635 389.643616,323.648926 
	C397.461517,319.702362 405.517090,320.224854 413.326202,322.954254 
	C413.125916,339.711456 418.761322,352.604034 432.796509,361.166077 
	C432.547363,362.307526 432.225067,363.455902 432.652496,364.126190 
	C436.976379,370.906525 441.166077,377.799530 445.955627,384.242981 
	C447.998291,386.991058 451.365692,388.754425 454.415863,391.134583 
	C456.180420,393.086639 457.529480,395.000244 459.161255,396.630920 
	C469.983612,407.446045 483.851013,412.500885 498.000000,417.000000 
	C498.000000,418.714355 498.000000,420.428711 498.000000,422.571533 
z"/>
<path fill="#BCE5EA" opacity="1.000000" stroke="none" 
	d="
M435.550018,0.999995 
	C426.266388,9.494125 416.899109,18.467052 406.659943,26.300335 
	C400.650421,30.897810 392.925934,29.312639 385.890625,27.763680 
	C373.112732,24.950382 361.171204,20.078123 350.359924,11.953272 
	C351.795319,10.247416 353.277679,9.110339 354.676636,8.037250 
	C351.269867,3.633887 347.968872,3.063480 344.523041,7.471549 
	C345.678436,8.962199 346.838989,10.459481 347.999542,11.956762 
	C341.650055,14.788819 335.312347,17.647585 328.948578,20.447172 
	C317.056427,25.678818 306.958099,21.584558 297.751831,14.059019 
	C293.021515,10.192293 288.733398,5.784587 284.122742,1.310673 
	C285.714355,1.000000 287.428711,1.000000 289.731445,1.295811 
	C291.855896,2.841372 293.351044,4.145792 294.934448,5.332350 
	C309.514954,16.258354 329.061768,17.000505 342.617981,7.090974 
	C340.740326,5.055238 338.870148,3.027619 337.000000,1.000000 
	C350.354218,1.000000 363.708466,1.000000 377.378296,1.301623 
	C376.162476,2.858312 374.767120,4.364312 373.057739,5.291226 
	C371.618774,6.071502 369.078278,7.078705 368.292603,6.436103 
	C363.475952,2.496632 360.211090,5.930376 356.360779,8.115454 
	C379.954681,26.595036 407.220093,22.752497 427.000000,1.000000 
	C429.700012,1.000000 432.400024,1.000000 435.550018,0.999995 
z"/>
<path fill="#FDFEFE" opacity="1.000000" stroke="none" 
	d="
M364.948639,595.828857 
	C390.805054,604.886841 415.774597,615.534241 433.839539,637.354553 
	C436.775818,640.901306 437.946503,645.909729 439.966644,650.621277 
	C431.312439,651.000000 422.624878,651.000000 413.445404,650.647705 
	C402.853180,632.691895 388.652344,618.586914 374.123840,604.758057 
	C371.032867,601.815857 368.005371,598.807007 364.948639,595.828857 
z"/>
<path fill="#FEFFFF" opacity="1.000000" stroke="none" 
	d="
M426.531342,1.000000 
	C407.220093,22.752497 379.954681,26.595036 356.360779,8.115454 
	C360.211090,5.930376 363.475952,2.496632 368.292603,6.436103 
	C369.078278,7.078705 371.618774,6.071502 373.057739,5.291226 
	C374.767120,4.364312 376.162476,2.858312 377.846924,1.301623 
	C394.020905,1.000000 410.041779,1.000000 426.531342,1.000000 
z"/>
<path fill="#BAE4E9" opacity="1.000000" stroke="none" 
	d="
M498.000000,416.545898 
	C483.851013,412.500885 469.983612,407.446045 459.161255,396.630920 
	C457.529480,395.000244 456.180420,393.086639 454.335083,390.765564 
	C451.619934,381.850067 449.270355,373.472961 447.384247,365.069824 
	C451.262787,365.068024 454.677826,365.092194 458.092865,365.116364 
	C464.552002,385.241577 477.133881,399.645477 497.622040,407.007324 
	C498.000000,410.030609 498.000000,413.061188 498.000000,416.545898 
z"/>
<path fill="#BCE5EA" opacity="1.000000" stroke="none" 
	d="
M137.468658,651.000000 
	C136.633698,650.104858 136.437393,649.080811 135.872467,648.336365 
	C133.040558,644.604614 133.507065,641.469910 137.065643,638.424072 
	C140.701447,635.312195 144.009155,631.815735 147.663055,628.727234 
	C148.525345,627.998413 150.669312,627.574280 151.428787,628.118713 
	C161.616882,635.422424 171.663864,642.923035 181.872955,650.687378 
	C167.312439,651.000000 152.624878,651.000000 137.468658,651.000000 
M146.143539,641.357117 
	C148.817001,643.544312 151.480057,645.745239 154.230057,647.831604 
	C154.292358,647.878784 155.943802,646.187378 155.840027,646.044800 
	C153.789734,643.227173 151.591293,640.517334 149.412323,637.794006 
	C149.318893,637.677307 149.129669,637.618958 148.973404,637.573364 
	C146.028030,636.714539 144.726242,637.493774 146.143539,641.357117 
z"/>
<path fill="#BCE5EA" opacity="1.000000" stroke="none" 
	d="
M364.670288,595.565063 
	C368.005371,598.807007 371.032867,601.815857 374.123840,604.758057 
	C388.652344,618.586914 402.853180,632.691895 412.976746,650.647705 
	C410.958344,651.000000 408.916656,651.000000 406.437500,651.000000 
	C401.928406,645.203674 398.431976,638.875549 393.666351,633.720825 
	C383.524628,622.751099 373.721161,611.329041 360.867676,603.210693 
	C351.314148,597.176697 344.837006,597.470886 336.121643,604.690552 
	C338.145813,597.676147 348.969879,592.573425 358.092316,594.211426 
	C360.189819,594.588074 362.291931,594.938721 364.670288,595.565063 
z"/>
<path fill="#FEFFFF" opacity="1.000000" stroke="none" 
	d="
M336.531342,1.000000 
	C338.870148,3.027619 340.740326,5.055238 342.617981,7.090974 
	C329.061768,17.000505 309.514954,16.258354 294.934448,5.332350 
	C293.351044,4.145792 291.855896,2.841372 290.159912,1.295811 
	C305.354218,1.000000 320.708466,1.000000 336.531342,1.000000 
z"/>
<path fill="#FEFFFF" opacity="1.000000" stroke="none" 
	d="
M498.000000,50.533882 
	C486.968781,52.630928 475.938751,54.270107 464.904846,55.882507 
	C463.501953,56.087509 462.078552,56.152489 460.342377,56.146790 
	C462.248505,52.538212 464.476929,49.065186 467.270111,45.293198 
	C477.889923,41.996159 487.944977,38.998085 498.000000,36.000008 
	C498.000000,40.689255 498.000000,45.378513 498.000000,50.533882 
z"/>
<path fill="#F1F9FA" opacity="1.000000" stroke="none" 
	d="
M498.000000,35.571541 
	C487.944977,38.998085 477.889923,41.996159 467.450439,45.007423 
	C475.119781,36.067383 485.073547,30.920404 497.570618,30.004177 
	C498.000000,31.714357 498.000000,33.428715 498.000000,35.571541 
z"/>
<path fill="#75CAD4" opacity="1.000000" stroke="none" 
	d="
M458.492279,365.063721 
	C454.677826,365.092194 451.262787,365.068024 447.001862,365.000305 
	C441.794434,363.621552 437.432861,362.286346 433.071320,360.951141 
	C418.761322,352.604034 413.125916,339.711456 413.326202,322.954254 
	C405.517090,320.224854 397.461517,319.702362 389.270081,323.654846 
	C389.599945,334.662750 387.048645,344.389008 380.073242,352.646545 
	C378.490051,354.520752 376.477570,356.032349 374.049286,357.999023 
	C369.898499,360.414764 366.361145,362.542358 362.394745,364.701782 
	C359.652100,364.885986 357.338531,365.038300 354.559052,365.141968 
	C349.405396,364.957611 344.717651,364.821838 339.845337,364.409454 
	C335.462036,361.407898 331.263245,358.682983 326.871887,355.685638 
	C324.155609,352.132812 321.660370,348.829895 319.093964,345.583252 
	C318.093323,344.317413 317.091156,342.965485 315.818542,342.016235 
	C307.745636,335.994476 299.460175,330.249786 291.520721,324.059784 
	C286.164276,319.883606 281.595398,314.653931 276.073456,310.743866 
	C268.401306,305.311188 257.659882,309.750061 257.158112,318.792084 
	C256.599762,328.853943 257.590149,339.001740 257.903748,349.509369 
	C257.676361,351.989532 257.451630,354.072479 257.169312,356.589233 
	C257.123566,366.768311 254.531158,375.906067 248.227844,383.220856 
	C242.688828,389.648651 235.900131,394.999542 229.361664,400.897034 
	C228.033844,401.830597 227.007721,402.693176 225.577576,403.579895 
	C213.795578,406.507019 202.417603,409.410004 190.586334,412.238586 
	C185.419479,411.458374 180.705917,410.752533 175.992371,410.046722 
	C162.062897,399.480164 153.157013,384.692169 143.080261,370.887329 
	C140.940125,367.955414 139.621887,363.875732 134.393768,365.608093 
	C133.572830,365.880096 131.493820,364.027039 130.808731,362.728180 
	C128.642227,358.620636 126.964447,354.258392 124.893654,350.096130 
	C123.581680,347.459076 124.406326,345.757812 126.563721,344.176086 
	C131.657944,340.441284 136.696899,336.631104 142.285095,332.467712 
	C145.572403,330.154388 148.332840,328.224762 151.426880,326.174225 
	C155.906815,323.470367 160.053177,320.887451 164.540833,318.200409 
	C174.588882,313.734009 184.295639,309.371765 194.390869,304.986938 
	C209.321701,301.294189 223.877350,297.674988 238.391998,293.898254 
	C240.539001,293.339600 242.492264,292.036316 244.895569,291.127899 
	C253.202682,287.134003 261.149384,283.089752 269.096069,279.045471 
	C282.468201,269.805603 295.751801,260.433319 309.262054,251.400009 
	C313.788849,248.373306 318.893646,246.211105 324.330658,243.366669 
	C337.268036,239.065308 349.609009,235.051010 362.230194,230.966400 
	C362.689087,230.599594 362.867737,230.303085 363.024872,230.000946 
	C363.003357,229.995316 362.999298,230.038544 362.999298,230.038544 
	C367.696014,229.229736 372.496002,228.789215 377.060486,227.508972 
	C381.659637,226.219009 384.282623,227.458099 385.851746,231.872635 
	C386.847015,234.672760 388.146790,237.378235 389.479034,240.041595 
	C391.170441,243.422958 392.183868,246.491638 388.137177,249.112854 
	C387.516327,249.515030 387.552643,251.476135 387.806580,252.598206 
	C389.813354,261.465271 391.946686,270.303680 394.156433,279.943298 
	C396.813934,292.181702 399.844971,303.631256 393.870575,315.071472 
	C393.802948,315.073853 393.887177,315.021240 394.430969,315.071777 
	C399.672516,315.342529 404.609863,314.826782 409.193146,315.868683 
	C413.838287,316.924683 417.072510,316.715637 419.303467,311.832764 
	C423.382935,309.503632 427.009369,306.967438 430.991180,305.259979 
	C434.070038,303.939758 437.594025,303.657562 440.920135,302.913910 
	C444.619690,302.634247 448.319275,302.354553 452.439636,302.094513 
	C455.930756,302.391449 458.995728,302.792419 462.072235,302.923615 
	C472.741547,303.378510 481.941772,306.160431 487.243713,316.713104 
	C488.096710,318.410797 491.380829,318.887024 493.957825,320.128693 
	C492.300507,321.001556 490.792938,321.795563 489.058685,322.708923 
	C489.217529,334.715607 484.411194,345.009094 477.301483,354.535126 
	C472.630463,360.793610 466.614594,364.306183 458.492279,365.063721 
M339.397278,359.350739 
	C346.247498,362.063477 353.126984,362.789825 360.788086,359.668396 
	C376.794708,355.546722 387.180298,340.746918 384.627899,325.898560 
	C377.098755,330.533752 369.519684,335.199707 361.196259,339.981476 
	C356.119690,341.615295 351.043152,343.249146 345.069489,344.888092 
	C338.122894,344.888092 331.176270,344.888092 323.209106,344.888092 
	C327.618835,351.902435 332.055786,356.740234 339.397278,359.350739 
M228.662262,393.744080 
	C241.742813,384.488647 249.580505,372.263763 250.102631,355.028107 
	C250.086136,352.703400 250.069656,350.378723 250.147232,347.170197 
	C247.763748,337.395660 246.049377,327.391174 242.793671,317.916351 
	C239.984268,309.740387 231.202667,305.297791 222.153732,306.266205 
	C205.495132,308.048950 189.958923,313.683075 174.202042,320.939636 
	C163.763184,326.008942 153.604416,331.405121 148.163910,343.392731 
	C147.480072,347.745026 145.654953,352.279602 146.315796,356.417145 
	C148.789093,371.902588 157.266418,384.135132 169.257996,394.883484 
	C174.126221,397.691010 178.994446,400.498535 184.472443,403.753052 
	C198.989578,407.776031 212.132248,404.724365 224.821518,395.976288 
	C225.885559,395.288452 226.949615,394.600647 228.662262,393.744080 
M338.071899,307.793640 
	C322.887878,309.042328 315.889069,317.207092 318.226593,331.415649 
	C318.564484,333.469574 320.262787,336.334198 321.995026,336.946472 
	C329.791870,339.702362 337.897217,340.086456 346.839020,338.116608 
	C358.867218,335.796478 369.676910,331.051788 378.411041,322.203552 
	C383.237793,317.313812 383.195190,315.239899 376.879425,312.403809 
	C364.786957,306.973663 351.969513,306.007172 338.071899,307.793640 
M417.909088,323.759430 
	C416.572266,333.764130 419.197937,342.556641 426.260559,350.680786 
	C431.466156,356.673920 438.281616,359.570526 446.833893,360.988983 
	C449.904602,360.975708 452.975311,360.962463 456.838501,361.014893 
	C471.717957,358.984528 484.724457,343.555939 484.988586,327.622681 
	C485.157043,317.461182 481.143738,311.390961 471.285400,309.083771 
	C465.083191,307.632202 458.517303,307.734406 451.244629,307.053864 
	C447.792145,307.415070 444.339661,307.776245 440.107910,308.138550 
	C438.324097,308.439972 436.522339,308.661438 434.759521,309.056580 
	C426.831543,310.833618 419.948639,313.891052 417.909088,323.759430 
M333.751953,303.664917 
	C351.770599,301.022095 369.367371,300.844452 384.951599,312.426941 
	C389.338013,305.257996 390.796112,291.415894 388.161682,281.187134 
	C386.241943,274.683838 385.020477,267.867126 382.269196,261.737030 
	C374.567505,244.577255 362.371094,238.983856 344.190704,243.612808 
	C327.297760,247.913971 312.800629,257.091461 298.699097,266.818146 
	C293.873260,270.146851 290.002075,274.859619 285.151550,279.324158 
	C283.827911,283.222778 282.504272,287.121368 281.076202,291.808044 
	C281.546722,293.896454 281.459717,296.364471 282.580261,298.010315 
	C288.805054,307.153229 295.005249,316.350128 301.894806,324.985229 
	C304.712677,328.517059 309.239014,330.685791 313.786072,334.068207 
	C313.786072,329.330139 313.786072,326.079468 313.786072,322.966217 
	C311.725830,322.013641 309.897888,321.168457 308.030609,320.305084 
	C311.063171,318.877411 314.620300,318.385834 315.562561,316.551239 
	C319.330780,309.214386 325.333984,305.522766 333.751953,303.664917 
M132.815903,354.975403 
	C134.766891,354.218079 136.877914,353.706696 138.594635,352.589417 
	C139.341934,352.103058 139.279556,350.372711 139.584885,349.207306 
	C137.337952,349.374695 134.843262,348.996857 132.917816,349.871765 
	C131.193924,350.655060 128.361649,352.558411 132.815903,354.975403 
M382.954407,237.292938 
	C378.355530,234.516388 374.729950,236.201401 374.254303,241.503815 
	C378.130524,242.859985 380.972168,241.661835 382.954407,237.292938 
z"/>
<path fill="#74CAD4" opacity="1.000000" stroke="none" 
	d="
M259.220306,85.038208 
	C269.551514,83.658226 279.882721,82.278236 290.676483,80.789276 
	C301.250214,80.901131 311.361450,81.258415 321.472534,81.254669 
	C324.287018,81.253632 325.876923,81.994835 326.608643,84.684624 
	C327.218170,86.925293 327.962708,89.129242 328.817444,92.044403 
	C329.537262,95.157143 330.090393,97.184456 327.008240,98.879921 
	C325.505890,99.706345 325.215240,102.735588 324.260925,105.196960 
	C324.378510,108.676704 324.611267,111.727211 324.717102,115.173065 
	C323.777039,119.721214 322.963898,123.874016 322.058105,128.403519 
	C319.562073,135.308197 318.411560,142.725327 314.525482,148.201035 
	C301.765076,166.181229 284.220093,174.003189 261.720581,169.351685 
	C258.630920,168.112442 255.832794,167.039886 252.760284,165.768997 
	C243.384140,160.064316 235.243790,153.308960 230.449524,143.755325 
	C226.847458,136.577408 220.195694,129.947830 224.008301,120.437401 
	C225.164642,117.552917 222.724915,116.405037 220.293610,116.992027 
	C214.518692,118.386284 208.734116,119.868889 203.142365,121.849213 
	C199.290924,123.213196 199.703690,125.625664 202.652557,128.081070 
	C204.249207,129.410522 206.436523,131.006927 206.726868,132.753906 
	C207.784302,139.116425 208.972290,145.637344 208.627731,152.018448 
	C207.662811,169.888855 201.370148,185.319916 185.544708,195.891479 
	C182.771362,197.219711 180.339722,198.463455 177.908081,199.707199 
	C165.611099,203.470337 153.091904,204.220917 141.331390,198.817062 
	C128.386581,192.869034 118.447319,182.983582 111.149689,170.700745 
	C108.559479,166.341080 106.655312,161.653748 100.353668,161.808105 
	C99.595566,161.826691 98.429993,160.171646 98.079735,159.089539 
	C97.006622,155.774139 96.048584,152.392609 95.460823,148.965591 
	C95.269417,147.849594 95.995689,145.917801 96.908943,145.369354 
	C111.003906,136.904755 125.198990,128.606873 140.035370,120.006577 
	C155.379974,113.497406 170.499695,112.353859 186.398056,115.901703 
	C188.244003,115.410461 190.508789,115.262955 191.036880,114.228691 
	C193.240723,109.912491 197.209991,109.124397 201.248520,108.112831 
	C205.564117,107.031868 209.851349,105.824448 214.113495,104.547203 
	C218.242523,103.309837 222.187988,101.873116 226.591400,104.132988 
	C227.800018,104.753250 230.367157,103.822250 231.744659,102.822746 
	C236.950058,99.045761 241.922546,94.947769 247.322662,90.880997 
	C251.515518,88.874130 255.367920,86.956169 259.220306,85.038208 
M149.287827,125.116951 
	C146.859085,126.072418 144.430359,127.027885 141.276382,128.036179 
	C135.878189,131.225769 130.187759,134.018341 125.163757,137.716293 
	C120.111053,141.435364 116.326675,146.668213 116.447655,153.241302 
	C116.664314,165.012863 120.550400,175.428040 130.229645,182.845184 
	C143.476883,192.996475 157.884796,197.596008 175.009460,191.100769 
	C177.715424,189.763885 180.421387,188.427002 183.766464,186.859924 
	C191.572754,182.367493 197.644150,176.315628 199.381744,167.196030 
	C201.884140,154.062546 199.396088,141.680344 191.904861,130.593719 
	C188.727798,125.891792 183.948959,123.119667 177.196945,122.766495 
	C172.103333,122.778778 167.009705,122.791061 161.087509,122.831200 
	C157.396149,123.598709 153.704803,124.366219 149.287827,125.116951 
M265.215363,92.881531 
	C254.812241,95.097427 245.784134,100.051598 238.900421,108.021263 
	C236.279633,111.055519 234.253906,115.812088 234.320557,119.743637 
	C234.568192,134.355026 238.753326,147.612854 251.395233,157.618729 
	C254.543579,158.790985 257.691925,159.963242 261.537201,161.621872 
	C286.004456,165.019272 304.247772,155.324219 313.147888,133.694061 
	C316.894867,124.587692 318.486237,115.145004 313.079712,105.155571 
	C311.603882,99.448128 308.859436,94.491684 303.171722,92.255959 
	C290.766479,87.379669 278.323486,87.999283 265.215363,92.881531 
z"/>
<path fill="#BAE4E9" opacity="1.000000" stroke="none" 
	d="
M253.034668,165.967346 
	C255.832794,167.039886 258.630920,168.112442 261.741577,169.783020 
	C264.254822,180.603073 268.948029,189.695343 275.048676,198.046158 
	C283.404846,209.484436 292.959991,219.686111 306.184174,226.308914 
	C310.920288,228.087677 315.431091,229.596481 320.248779,231.366211 
	C346.134399,234.786163 365.690002,224.254486 380.852020,204.518723 
	C385.057404,199.044724 386.376434,192.415192 385.356598,185.213226 
	C383.665985,173.274628 377.095764,164.046524 369.802185,154.716385 
	C362.131836,147.242386 354.593414,140.071106 346.894897,132.610413 
	C341.845947,128.200912 336.957031,124.080803 331.902527,119.666412 
	C329.439270,117.840660 327.141663,116.309181 324.844055,114.777710 
	C324.611267,111.727211 324.378510,108.676704 324.578125,105.249527 
	C325.660828,104.942627 326.311096,105.012398 326.961395,105.082153 
	C329.385712,107.036636 331.810059,108.991119 334.734131,111.289566 
	C338.812775,114.459038 342.391693,117.284561 345.970612,120.110085 
	C351.442780,125.317863 356.914948,130.525635 362.828064,136.186127 
	C367.473816,141.124390 371.678619,145.609955 375.883453,150.095520 
	C376.391357,150.983154 376.899231,151.870789 377.683289,152.912979 
	C388.621277,167.692856 399.215576,182.368240 409.995422,196.906082 
	C412.488129,200.267792 412.309326,202.690872 409.189026,205.436188 
	C405.817322,208.402740 403.001465,212.039764 399.463776,214.761154 
	C397.904083,215.960953 394.371918,216.699203 393.107422,215.773224 
	C389.745483,213.311234 387.247589,214.559418 384.517761,216.253525 
	C377.456055,220.635941 370.423889,225.065918 363.189636,229.757721 
	C362.999298,230.038544 363.003357,229.995316 362.778076,230.095428 
	C362.351868,230.475922 362.150909,230.756302 361.949951,231.036713 
	C349.609009,235.051010 337.268036,239.065308 324.557556,243.098755 
	C319.039124,240.754333 313.890167,238.390793 308.216980,235.681396 
	C304.463226,233.220718 301.233704,231.105911 297.806702,228.724915 
	C288.447968,219.826080 278.640259,211.769302 270.299347,202.405899 
	C261.155731,192.141418 255.101120,179.860764 253.034668,165.967346 
M392.541382,198.904495 
	C394.696228,201.094742 396.744843,203.409729 399.074860,205.394318 
	C399.719269,205.943192 401.549225,205.932358 402.194977,205.400696 
	C402.777740,204.920837 402.985260,202.901138 402.493256,202.384766 
	C400.177887,199.954971 397.602417,197.760666 394.956024,195.691772 
	C394.809967,195.577560 393.192657,197.345261 392.541382,198.904495 
z"/>
<path fill="#F1F9FA" opacity="1.000000" stroke="none" 
	d="
M151.093277,326.295166 
	C148.332840,328.224762 145.572403,330.154388 142.488403,332.207642 
	C141.444611,324.609589 140.489929,316.896118 140.217697,309.158691 
	C140.167984,307.745789 142.654282,305.408112 144.384598,304.894562 
	C167.224213,298.115723 190.011017,291.093750 213.074265,285.154785 
	C231.040070,280.528412 249.457779,278.108398 268.619019,279.028259 
	C261.149384,283.089752 253.202682,287.134003 244.423859,291.115417 
	C231.889603,293.141083 220.069138,294.741943 208.539276,297.540283 
	C203.392548,298.789429 198.830048,302.445709 194.002411,305.009521 
	C184.295639,309.371765 174.588882,313.734009 164.333557,317.826721 
	C161.825836,317.037689 159.874435,316.105591 157.906174,316.068542 
	C148.204376,315.885895 146.583435,318.416534 151.093277,326.295166 
z"/>
<path fill="#BCE5EA" opacity="1.000000" stroke="none" 
	d="
M219.836243,248.013565 
	C219.397263,253.062714 222.197617,255.653702 226.923584,256.208405 
	C226.562408,257.300659 226.499146,257.852173 226.355606,257.873901 
	C221.498428,258.609863 220.475159,262.170746 219.233002,266.280762 
	C213.413300,285.537079 187.761261,293.134979 171.285141,280.784943 
	C162.987808,274.565491 158.674866,266.558014 158.941956,256.057709 
	C159.154221,247.712051 157.436066,245.967438 148.904877,245.031128 
	C147.422531,244.868454 145.910416,244.955002 144.412231,244.962555 
	C136.377380,245.003067 136.207718,245.120438 134.779541,253.101669 
	C132.608109,265.236267 125.894798,273.748718 114.296860,277.945770 
	C102.202393,282.322449 91.005348,279.464355 82.049469,270.918030 
	C77.862068,266.922150 75.179543,260.764130 73.335594,255.091705 
	C71.977173,250.912903 73.943436,245.477325 66.611519,245.037201 
	C67.457176,243.710632 67.834938,242.715210 68.112190,242.742477 
	C73.963982,243.317581 74.663795,238.429260 76.634041,234.859879 
	C85.441360,218.904114 110.859230,214.785965 123.852020,227.564789 
	C128.253876,231.894135 131.507965,237.390472 135.707626,242.906555 
	C143.652115,239.384293 152.077942,241.276352 160.703827,245.158798 
	C167.228821,232.894440 177.596390,227.195389 191.976593,227.053726 
	C194.890488,227.562088 197.006180,227.979248 199.067200,228.582993 
	C209.245804,231.564682 215.388245,238.890381 219.836243,248.013565 
M213.751816,244.369705 
	C209.729355,238.131607 204.744720,233.197998 196.243378,231.654572 
	C192.952255,231.425095 189.648682,230.886642 186.372147,231.018845 
	C171.070267,231.636230 159.391266,247.353424 162.778488,262.156860 
	C165.675476,274.817749 177.756607,283.526855 190.570236,283.193848 
	C211.182037,282.658142 223.384796,263.207886 213.751816,244.369705 
M77.389465,241.247269 
	C76.925217,243.678207 76.137108,246.097473 76.049004,248.541962 
	C75.454285,265.042206 89.620514,277.682495 107.322769,275.888245 
	C117.584724,274.848114 125.438614,269.388092 129.255035,259.505859 
	C133.103943,249.539474 131.282211,240.563324 124.062561,232.342224 
	C112.325829,218.977432 85.495285,220.730728 77.389465,241.247269 
z"/>
<path fill="#F1F9FA" opacity="1.000000" stroke="none" 
	d="
M220.290741,248.009216 
	C215.388245,238.890381 209.245804,231.564682 199.067200,228.582993 
	C197.006180,227.979248 194.890488,227.562088 192.406189,227.043930 
	C187.401535,218.156769 182.790680,209.284576 178.043945,200.059784 
	C180.339722,198.463455 182.771362,197.219711 185.695648,196.225693 
	C191.659744,206.776642 197.940689,216.496643 206.794083,224.270416 
	C218.491028,234.540985 231.940140,240.438019 247.702576,241.066971 
	C260.449463,241.575592 272.812347,239.713135 284.813141,235.752228 
	C289.449005,234.222137 293.620941,231.286423 298.004211,228.991089 
	C301.233704,231.105911 304.463226,233.220718 307.857849,235.626099 
	C305.192657,237.506012 302.504883,239.462677 299.509003,240.625412 
	C279.222260,248.499039 258.083984,250.981003 236.480835,249.920486 
	C231.216980,249.662094 225.989471,248.663269 220.290741,248.009216 
z"/>
<path fill="#F1F9FA" opacity="1.000000" stroke="none" 
	d="
M176.000229,410.420776 
	C180.705917,410.752533 185.419479,411.458374 190.626556,412.564209 
	C197.882751,425.447174 208.946335,432.911896 221.642029,437.905853 
	C233.479858,442.562378 245.978073,443.684570 258.653259,441.968292 
	C260.033569,443.870636 261.385223,445.794708 262.806519,447.665894 
	C263.493744,448.570648 264.311737,449.376099 265.051361,450.610535 
	C256.870209,450.996399 248.707382,451.073273 240.546387,450.982880 
	C227.321503,450.836456 214.517761,448.213593 202.218613,443.497925 
	C193.540421,440.170593 186.925262,434.214813 182.876556,425.694397 
	C180.529541,420.755188 178.293869,415.763092 176.000229,410.420776 
z"/>
<path fill="#F1F9FA" opacity="1.000000" stroke="none" 
	d="
M186.018158,115.837585 
	C170.499695,112.353859 155.379974,113.497406 140.341492,119.816360 
	C141.162674,118.177116 141.958115,115.638870 143.582901,114.882759 
	C156.050644,109.080719 168.687210,103.642174 181.246841,98.035873 
	C182.538162,97.459457 183.668884,96.523277 184.925797,95.407455 
	C199.503845,97.626740 212.716171,92.365173 226.091095,88.125450 
	C231.155045,86.520233 236.175583,84.777519 241.210419,83.081177 
	C247.228088,81.053696 252.976273,81.673592 258.850464,84.915039 
	C255.367920,86.956169 251.515518,88.874130 247.068359,90.603699 
	C244.044601,90.618767 241.572815,90.600983 239.193573,91.061455 
	C223.327789,94.132019 207.681976,98.012871 194.039764,107.149498 
	C190.854889,109.282509 188.665543,112.902008 186.018158,115.837585 
z"/>
<path fill="#BCE5EA" opacity="1.000000" stroke="none" 
	d="
M265.450928,471.840454 
	C265.814758,474.968536 265.851379,478.104614 265.432098,481.654907 
	C259.676086,481.212616 254.309525,479.365570 249.090347,479.715668 
	C239.627167,480.350464 233.582474,487.132385 227.960342,494.035095 
	C226.482864,493.414948 225.005386,492.794800 223.225861,491.995728 
	C226.457108,487.208801 230.058273,482.650177 233.473434,477.956268 
	C234.275436,476.853943 235.220840,474.925293 234.781799,474.007507 
	C232.568329,469.380280 235.273346,466.806488 238.285583,464.243286 
	C240.055252,462.737427 241.983398,461.405060 243.659897,459.805634 
	C245.839828,457.725891 247.737015,457.485046 250.163406,459.578217 
	C255.045410,463.789764 260.125427,467.771759 265.450928,471.840454 
M250.652267,472.280640 
	C249.765396,468.492279 247.618896,466.001007 243.659317,464.902771 
	C243.027664,470.858185 245.561035,473.659851 250.652267,472.280640 
z"/>
<path fill="#F1F9FA" opacity="1.000000" stroke="none" 
	d="
M228.183899,494.294556 
	C233.582474,487.132385 239.627167,480.350464 249.090347,479.715668 
	C254.309525,479.365570 259.676086,481.212616 265.342163,482.113708 
	C266.460480,486.895172 267.356812,491.614624 267.934845,496.372711 
	C269.089325,505.876160 273.074524,513.899597 281.778412,518.131592 
	C292.752228,523.467163 304.221069,527.784729 315.740173,532.799438 
	C324.356415,548.326904 332.186981,563.927368 343.974487,577.370422 
	C336.826263,573.665283 329.149902,570.288452 322.535889,565.457275 
	C314.280670,559.427368 306.511871,552.594421 299.215881,545.414307 
	C278.228516,524.760132 255.746353,506.309937 228.183899,494.294556 
z"/>
<path fill="#BAE4E9" opacity="1.000000" stroke="none" 
	d="
M348.334534,11.971256 
	C346.838989,10.459481 345.678436,8.962199 344.523041,7.471549 
	C347.968872,3.063480 351.269867,3.633887 354.676636,8.037250 
	C353.277679,9.110339 351.795319,10.247416 350.161987,11.681774 
	C349.563873,11.981286 349.116699,11.983518 348.334534,11.971256 
z"/>
<path fill="#F1F9FA" opacity="1.000000" stroke="none" 
	d="
M419.003418,311.982544 
	C417.072510,316.715637 413.838287,316.924683 409.193146,315.868683 
	C404.609863,314.826782 399.672516,315.342529 394.442963,315.084747 
	C393.995422,314.994568 394.022461,315.016449 394.022461,315.016449 
	C399.844971,303.631256 396.813934,292.181702 394.207672,280.357422 
	C399.404449,278.830292 404.731720,277.919464 409.909668,276.473755 
	C416.747223,274.564575 423.467712,272.236053 430.623505,270.045258 
	C430.683929,276.021027 430.359344,282.039368 429.700073,288.554413 
	C422.013550,294.933624 418.469635,302.536804 419.003418,311.982544 
z"/>
<path fill="#BCE5EA" opacity="1.000000" stroke="none" 
	d="
M362.823792,364.669922 
	C366.361145,362.542358 369.898499,360.414764 373.764923,358.171509 
	C377.603302,358.701660 381.092377,359.503937 384.626038,359.962250 
	C393.157501,361.068634 401.712860,361.989349 410.252197,363.037079 
	C413.682220,363.457947 415.677490,364.969910 415.035706,368.943909 
	C412.311798,385.810883 409.731140,402.700531 402.730103,418.504486 
	C399.967499,424.740692 394.307587,426.585266 388.436493,426.840454 
	C372.820557,427.519257 357.170471,427.427307 342.000854,422.887329 
	C339.328186,422.087433 337.067200,419.912048 334.326233,417.747040 
	C332.993225,412.407745 331.950104,407.693298 330.884918,402.594543 
	C328.278809,394.888000 326.176422,387.346008 322.965881,380.309662 
	C320.143311,374.123627 315.765472,373.644165 311.240112,378.310730 
	C309.071747,380.546783 307.036957,383.096191 305.633057,385.855408 
	C301.348938,394.275574 297.168762,402.766113 293.411835,411.430298 
	C291.285797,416.333282 287.823364,418.049072 282.895386,418.015259 
	C276.076508,417.968475 269.174469,418.656830 262.457886,417.823212 
	C252.980530,416.646881 243.570312,414.657776 234.272659,412.427216 
	C230.014420,411.405670 226.434464,408.667145 225.981613,403.555756 
	C227.007721,402.693176 228.033844,401.830597 229.497467,401.253815 
	C231.567505,407.331238 236.568619,408.955475 241.424149,409.771271 
	C251.852249,411.523407 262.373627,412.794891 272.895813,413.887299 
	C280.437073,414.670227 287.481903,413.901825 291.538696,405.857483 
	C296.714905,395.593414 301.571075,385.273499 303.116760,373.711517 
	C304.061035,366.648254 302.641998,364.218231 295.883972,361.826935 
	C283.369202,357.398590 270.291565,356.825562 257.226929,356.155396 
	C257.451630,354.072479 257.676361,351.989532 258.336731,349.474487 
	C260.886566,349.351501 262.995880,349.700500 265.115845,349.963501 
	C280.621124,351.887024 296.114105,353.924469 311.643463,355.630280 
	C316.734375,356.189453 321.921417,355.873688 327.064484,355.958008 
	C331.263245,358.682983 335.462036,361.407898 339.825531,364.729309 
	C339.970734,365.536682 339.951172,365.747620 339.547180,365.967224 
	C334.313904,366.475861 330.651337,368.476501 330.987396,373.969940 
	C331.436981,381.318970 332.331207,388.640747 333.063538,396.362488 
	C334.396027,400.833801 335.699493,404.916870 337.013306,409.374329 
	C338.153229,414.886475 340.727539,418.663879 346.436981,419.079346 
	C360.467438,420.100281 374.496307,421.212555 388.545471,421.866669 
	C393.069885,422.077332 397.455414,419.929016 398.664856,415.217468 
	C401.746338,403.213226 404.663361,391.134094 406.820068,378.938873 
	C407.905029,372.803833 406.239532,371.081879 400.137939,370.077179 
	C387.739258,368.035583 375.266205,366.445892 362.823792,364.669922 
z"/>
<path fill="#F1F9FA" opacity="1.000000" stroke="none" 
	d="
M330.906952,402.978882 
	C331.950104,407.693298 332.993225,412.407745 334.055603,417.538025 
	C330.747711,421.024658 327.420563,424.095459 324.060181,427.496399 
	C319.291992,427.234070 314.557007,426.641632 309.463806,425.643677 
	C314.207184,420.187042 319.342712,415.169525 324.395020,410.069580 
	C326.651855,407.791412 328.741486,405.347565 330.906952,402.978882 
z"/>
<path fill="#FEFFFF" opacity="1.000000" stroke="none" 
	d="
M283.192169,588.081482 
	C273.472748,599.337769 262.506866,609.032166 247.816528,613.014832 
	C222.419464,619.900085 201.375946,611.043823 183.186722,593.714172 
	C174.054047,585.013123 169.464005,573.738037 170.258133,561.301880 
	C171.575317,540.674561 178.193726,521.912231 193.890213,507.440125 
	C199.845795,501.949097 207.173172,500.103546 215.463379,501.165222 
	C209.232681,510.942841 204.583572,520.962219 210.316681,532.195251 
	C215.496933,542.345093 220.610962,552.871033 227.742889,561.607727 
	C240.610825,577.371033 256.339844,589.101318 278.558533,587.085632 
	C280.060608,586.949341 281.645691,587.728210 283.192169,588.081482 
z"/>
<path fill="#FEFFFF" opacity="1.000000" stroke="none" 
	d="
M221.991302,501.891541 
	C228.875214,504.655182 236.271225,506.568420 242.544434,510.346161 
	C259.550476,520.587280 275.552094,532.304016 288.306793,547.785400 
	C294.180450,554.914734 297.203369,563.056763 294.040588,572.376831 
	C293.372620,574.345093 291.887878,576.036255 290.083130,578.001221 
	C280.860870,580.618164 272.262115,581.355225 263.523254,579.334229 
	C250.718384,576.372864 240.628647,569.029724 232.059586,559.469116 
	C217.035538,542.706543 209.716522,524.082092 221.991302,501.891541 
z"/>
<path fill="#BCE5EA" opacity="1.000000" stroke="none" 
	d="
M221.718567,501.632690 
	C209.716522,524.082092 217.035538,542.706543 232.059586,559.469116 
	C240.628647,569.029724 250.718384,576.372864 263.523254,579.334229 
	C272.262115,581.355225 280.860870,580.618164 289.795410,578.206177 
	C288.052856,581.422119 285.901581,584.579102 283.471252,587.908813 
	C281.645691,587.728210 280.060608,586.949341 278.558533,587.085632 
	C256.339844,589.101318 240.610825,577.371033 227.742889,561.607727 
	C220.610962,552.871033 215.496933,542.345093 210.316681,532.195251 
	C204.583572,520.962219 209.232681,510.942841 215.922699,501.242798 
	C217.878021,501.080414 219.661926,501.227142 221.718567,501.632690 
z"/>
<path fill="#F1F9FA" opacity="1.000000" stroke="none" 
	d="
M196.777191,494.476288 
	C196.927719,498.592194 194.261642,498.650299 192.245163,497.351501 
	C189.965820,495.883392 188.363449,493.364227 186.466675,491.302124 
	C187.814713,490.677460 189.567215,489.190063 190.432281,489.595612 
	C192.708847,490.662903 194.599548,492.553223 196.777191,494.476288 
z"/>
<path fill="#FFFFFF" opacity="1.000000" stroke="none" 
	d="
M376.219818,149.936523 
	C371.678619,145.609955 367.473816,141.124390 363.122833,136.341522 
	C364.003662,131.531799 364.909607,126.987633 366.082611,122.513496 
	C368.582520,112.978432 378.973602,105.962326 388.817963,107.021805 
	C398.088470,108.019524 401.783081,113.646835 399.709259,123.427292 
	C396.922882,136.568054 389.125519,145.257141 376.219818,149.936523 
z"/>
<path fill="#FEFFFF" opacity="1.000000" stroke="none" 
	d="
M441.805359,119.039482 
	C442.818481,127.732193 444.029968,136.407776 444.782593,145.122971 
	C445.394775,152.211807 449.127991,157.468170 453.849243,162.698730 
	C452.703003,162.531860 451.003296,162.441299 450.165344,161.545059 
	C440.692535,151.412964 432.811279,140.149734 427.312195,127.382507 
	C424.297241,120.382637 421.781586,113.164268 419.138458,106.008339 
	C412.189392,87.194878 416.870331,72.853508 433.770355,61.130680 
	C436.221649,59.430328 438.797333,57.909309 441.622894,56.173641 
	C441.948914,59.716351 441.967499,63.390720 441.603333,67.533875 
	C432.649994,72.398506 423.898407,78.456734 422.988708,87.828728 
	C421.851562,99.544441 431.309265,115.124939 441.805359,119.039482 
z"/>
<path fill="#FDFEFE" opacity="1.000000" stroke="none" 
	d="
M327.159363,104.792480 
	C326.311096,105.012398 325.660828,104.942627 324.693298,104.820290 
	C325.215240,102.735588 325.505890,99.706345 327.008240,98.879921 
	C330.090393,97.184456 329.537262,95.157143 329.001587,92.371063 
	C331.868225,93.866837 334.720703,95.730888 338.662384,98.306747 
	C333.868256,100.934296 330.612762,102.718544 327.159363,104.792480 
z"/>
<path fill="#FDFEFE" opacity="1.000000" stroke="none" 
	d="
M345.980957,119.679092 
	C342.391693,117.284561 338.812775,114.459038 335.072449,111.336090 
	C337.200836,109.323631 339.490631,107.608604 342.928925,105.033356 
	C344.113831,110.533394 345.052551,114.890747 345.980957,119.679092 
z"/>
<path fill="#FFFFFF" opacity="1.000000" stroke="none" 
	d="
M313.069000,433.755219 
	C339.255096,435.778870 364.003204,443.062378 387.438507,454.702118 
	C394.231354,458.075958 400.043915,463.049011 401.301849,471.305145 
	C401.640717,473.529053 401.651154,475.992706 401.059875,478.139069 
	C395.563324,498.092896 386.186432,515.280762 366.287445,524.332458 
	C350.950043,531.309143 334.959747,530.991760 318.868774,527.559509 
	C315.680695,526.879517 312.642670,525.495972 309.233673,523.902222 
	C308.693726,522.754211 308.543732,522.086548 308.204559,521.535278 
	C299.124512,506.778839 287.714844,493.951416 275.312012,481.957184 
	C274.759857,481.423187 273.863647,481.244904 273.127686,480.900940 
	C270.651886,469.564941 272.283997,458.757568 277.999207,448.179565 
	C286.530487,445.442657 294.489044,443.211761 302.170166,440.259277 
	C306.061523,438.763489 309.452057,435.964844 313.069000,433.755219 
z"/>
<path fill="#FEFFFF" opacity="1.000000" stroke="none" 
	d="
M330.884918,402.594543 
	C328.741486,405.347565 326.651855,407.791412 324.395020,410.069580 
	C319.342712,415.169525 314.207184,420.187042 309.047852,425.564148 
	C295.392731,425.273926 281.786865,424.795013 268.202759,423.961578 
	C263.857788,423.695007 261.725372,425.194672 261.088043,429.418976 
	C260.494751,433.351562 259.632050,437.243530 258.770599,441.560852 
	C245.978073,443.684570 233.479858,442.562378 221.642029,437.905853 
	C208.946335,432.911896 197.882751,425.447174 191.079865,412.638611 
	C202.417603,409.410004 213.795578,406.507019 225.577576,403.579895 
	C226.434464,408.667145 230.014420,411.405670 234.272659,412.427216 
	C243.570312,414.657776 252.980530,416.646881 262.457886,417.823212 
	C269.174469,418.656830 276.076508,417.968475 282.895386,418.015259 
	C287.823364,418.049072 291.285797,416.333282 293.411835,411.430298 
	C297.168762,402.766113 301.348938,394.275574 305.633057,385.855408 
	C307.036957,383.096191 309.071747,380.546783 311.240112,378.310730 
	C315.765472,373.644165 320.143311,374.123627 322.965881,380.309662 
	C326.176422,387.346008 328.278809,394.888000 330.884918,402.594543 
z"/>
<path fill="#BCE5EA" opacity="1.000000" stroke="none" 
	d="
M273.065674,481.328918 
	C273.863647,481.244904 274.759857,481.423187 275.312012,481.957184 
	C287.714844,493.951416 299.124512,506.778839 308.204559,521.535278 
	C308.543732,522.086548 308.693726,522.754211 308.912903,523.733887 
	C306.074036,523.292358 303.254120,522.484558 300.118591,521.147949 
	C299.520233,520.415527 299.237518,520.211914 298.954834,520.008240 
	C298.954834,520.008240 299.007812,520.013428 298.969116,519.681030 
	C291.838776,508.331207 284.279633,497.697449 274.159668,489.165314 
	C273.774353,486.695831 273.389008,484.226379 273.065674,481.328918 
z"/>
<path fill="#F1F9FA" opacity="1.000000" stroke="none" 
	d="
M312.724854,433.546844 
	C309.452057,435.964844 306.061523,438.763489 302.170166,440.259277 
	C294.489044,443.211761 286.530487,445.442657 278.262604,447.949005 
	C281.230499,441.326752 286.771332,437.054230 293.747681,435.433289 
	C299.794495,434.028351 306.157471,433.984131 312.724854,433.546844 
z"/>
<path fill="#FDFEFE" opacity="1.000000" stroke="none" 
	d="
M274.137512,489.533966 
	C284.279633,497.697449 291.838776,508.331207 298.953156,519.702271 
	C288.653015,516.645447 282.421387,508.845093 277.610596,499.720062 
	C276.007172,496.678680 275.256073,493.187927 274.137512,489.533966 
z"/>
<path fill="#F1F9FA" opacity="1.000000" stroke="none" 
	d="
M276.856598,436.164795 
	C273.763977,439.347992 268.618835,439.370026 266.013336,436.455048 
	C265.445526,435.819763 264.885590,434.388245 265.202209,433.924866 
	C265.765869,433.099945 267.205353,432.071655 267.920746,432.291687 
	C270.951813,433.223999 273.851288,434.584229 276.856598,436.164795 
z"/>
<path fill="#FDFEFE" opacity="1.000000" stroke="none" 
	d="
M298.990967,520.290283 
	C299.237518,520.211914 299.520233,520.415527 299.905823,520.867798 
	C299.681519,520.934998 299.354340,520.753662 298.990967,520.290283 
z"/>
<path fill="#FFFFFF" opacity="1.000000" stroke="none" 
	d="
M441.926758,77.024094 
	C441.637268,87.264244 441.298279,97.503433 441.098907,107.745338 
	C441.057617,109.864326 441.535431,111.993431 441.458710,114.502090 
	C439.274384,113.270760 437.503174,111.522469 435.520355,110.061333 
	C423.271545,101.035149 429.485138,83.182373 441.926758,77.024094 
z"/>
<path fill="#F1F9FA" opacity="1.000000" stroke="none" 
	d="
M441.953308,76.571960 
	C429.485138,83.182373 423.271545,101.035149 435.520355,110.061333 
	C437.503174,111.522469 439.274384,113.270760 441.464294,114.912048 
	C441.828033,116.032944 441.870880,117.128098 441.859558,118.631363 
	C431.309265,115.124939 421.851562,99.544441 422.988708,87.828728 
	C423.898407,78.456734 432.649994,72.398506 441.581360,67.992752 
	C441.954712,70.695168 441.967285,73.407501 441.953308,76.571960 
z"/>
<path fill="#FDFEFE" opacity="1.000000" stroke="none" 
	d="
M459.508636,37.888145 
	C454.922302,37.811855 450.594604,37.701080 446.377289,36.961040 
	C445.389771,36.787758 444.092255,34.430508 444.189819,33.175388 
	C444.280884,32.003799 445.835083,30.506191 447.097260,29.947897 
	C450.868896,28.279623 457.423096,30.023335 459.638428,33.347809 
	C460.313538,34.360916 459.784882,36.176193 459.508636,37.888145 
z"/>
<path fill="#FDFEFE" opacity="1.000000" stroke="none" 
	d="
M419.303467,311.832764 
	C418.469635,302.536804 422.013550,294.933624 429.721069,289.005249 
	C432.566071,290.344025 435.146179,291.593353 437.503418,293.174866 
	C438.556763,293.881561 439.504120,295.145599 439.891846,296.352020 
	C440.482544,298.190094 440.545197,300.197815 440.876099,302.523712 
	C437.594025,303.657562 434.070038,303.939758 430.991180,305.259979 
	C427.009369,306.967438 423.382935,309.503632 419.303467,311.832764 
z"/>
<path fill="#F1F9FA" opacity="1.000000" stroke="none" 
	d="
M437.915863,269.705200 
	C442.730347,265.685089 447.545532,267.021942 452.106964,269.173920 
	C455.816467,270.923889 455.717316,273.769104 452.245239,275.852905 
	C446.839355,279.097351 438.201874,275.620056 437.915863,269.705200 
z"/>
<path fill="#FDFEFE" opacity="1.000000" stroke="none" 
	d="
M432.796509,361.166077 
	C437.432861,362.286346 441.794434,363.621552 446.538361,365.026306 
	C449.270355,373.472961 451.619934,381.850067 454.050354,390.596222 
	C451.365692,388.754425 447.998291,386.991058 445.955627,384.242981 
	C441.166077,377.799530 436.976379,370.906525 432.652496,364.126190 
	C432.225067,363.455902 432.547363,362.307526 432.796509,361.166077 
z"/>
<path fill="#FDFEFE" opacity="1.000000" stroke="none" 
	d="
M146.007385,641.027710 
	C144.726242,637.493774 146.028030,636.714539 148.973404,637.573364 
	C149.129669,637.618958 149.318893,637.677307 149.412323,637.794006 
	C151.591293,640.517334 153.789734,643.227173 155.840027,646.044800 
	C155.943802,646.187378 154.292358,647.878784 154.230057,647.831604 
	C151.480057,645.745239 148.817001,643.544312 146.007385,641.027710 
z"/>
<path fill="#FEFFFF" opacity="1.000000" stroke="none" 
	d="
M224.180283,396.038513 
	C212.132248,404.724365 198.989578,407.776031 184.185257,403.138855 
	C181.014694,395.145447 177.744492,387.890320 175.329483,380.360870 
	C170.492142,365.279205 168.106644,349.836548 171.091080,334.028442 
	C171.938522,329.539734 173.614105,325.207367 174.909882,320.803284 
	C189.958923,313.683075 205.495132,308.048950 222.153732,306.266205 
	C231.202667,305.297791 239.984268,309.740387 242.793671,317.916351 
	C246.049377,327.391174 247.763748,337.395660 249.650452,347.592316 
	C241.878464,347.685150 234.604279,347.331085 227.327652,347.037323 
	C223.808334,346.895264 221.801956,348.051605 221.893021,352.191650 
	C222.126770,362.820435 221.810394,373.462708 222.117310,384.087891 
	C222.232834,388.087982 223.459930,392.055908 224.180283,396.038513 
z"/>
<path fill="#FFFFFF" opacity="1.000000" stroke="none" 
	d="
M362.394745,364.701813 
	C375.266205,366.445892 387.739258,368.035583 400.137939,370.077179 
	C406.239532,371.081879 407.905029,372.803833 406.820068,378.938873 
	C404.663361,391.134094 401.746338,403.213226 398.664856,415.217468 
	C397.455414,419.929016 393.069885,422.077332 388.545471,421.866669 
	C374.496307,421.212555 360.467438,420.100281 346.436981,419.079346 
	C340.727539,418.663879 338.153229,414.886475 337.355560,409.324982 
	C338.895874,407.382355 340.605255,406.045258 341.232971,404.315643 
	C345.950165,391.317474 350.454224,378.241943 355.024933,365.190613 
	C357.338531,365.038300 359.652100,364.885986 362.394745,364.701813 
z"/>
<path fill="#FEFFFF" opacity="1.000000" stroke="none" 
	d="
M285.694702,278.940002 
	C290.002075,274.859619 293.873260,270.146851 298.699097,266.818146 
	C312.800629,257.091461 327.297760,247.913971 344.190704,243.612808 
	C362.371094,238.983856 374.567505,244.577255 382.269196,261.737030 
	C385.020477,267.867126 386.241943,274.683838 387.717743,281.598022 
	C369.582733,284.958130 351.872131,284.946259 334.050659,283.042145 
	C317.969482,281.324005 301.816223,280.280884 285.694702,278.940002 
z"/>
<path fill="#FEFFFF" opacity="1.000000" stroke="none" 
	d="
M257.169312,356.589233 
	C270.291565,356.825562 283.369202,357.398590 295.883972,361.826935 
	C302.641998,364.218231 304.061035,366.648254 303.116760,373.711517 
	C301.571075,385.273499 296.714905,395.593414 291.538696,405.857483 
	C287.481903,413.901825 280.437073,414.670227 272.895813,413.887299 
	C262.373627,412.794891 251.852249,411.523407 241.424149,409.771271 
	C236.568619,408.955475 231.567505,407.331238 229.799194,401.182831 
	C235.900131,394.999542 242.688828,389.648651 248.227844,383.220856 
	C254.531158,375.906067 257.123566,366.768311 257.169312,356.589233 
z"/>
<path fill="#FDFEFE" opacity="1.000000" stroke="none" 
	d="
M326.871887,355.685608 
	C321.921417,355.873688 316.734375,356.189453 311.643463,355.630280 
	C296.114105,353.924469 280.621124,351.887024 265.115845,349.963501 
	C262.995880,349.700500 260.886566,349.351501 258.339355,349.077209 
	C257.590149,339.001740 256.599762,328.853943 257.158112,318.792084 
	C257.659882,309.750061 268.401306,305.311188 276.073456,310.743866 
	C281.595398,314.653931 286.164276,319.883606 291.520721,324.059784 
	C299.460175,330.249786 307.745636,335.994476 315.818542,342.016235 
	C317.091156,342.965485 318.093323,344.317413 319.093964,345.583252 
	C321.660370,348.829895 324.155609,352.132812 326.871887,355.685608 
z"/>
<path fill="#F1F9FA" opacity="1.000000" stroke="none" 
	d="
M285.423157,279.132080 
	C301.816223,280.280884 317.969482,281.324005 334.050659,283.042145 
	C351.872131,284.946259 369.582733,284.958130 387.714172,282.014587 
	C390.796112,291.415894 389.338013,305.257996 384.951843,312.425415 
	C369.367371,300.844452 351.770599,301.022095 333.320648,303.382324 
	C328.090149,300.419434 323.565063,296.897339 318.436859,295.227600 
	C306.393158,291.306152 293.831909,290.387451 281.180634,291.019989 
	C282.504272,287.121368 283.827911,283.222778 285.423157,279.132080 
z"/>
<path fill="#FDFEFE" opacity="1.000000" stroke="none" 
	d="
M452.114594,307.139526 
	C458.517303,307.734406 465.083191,307.632202 471.285400,309.083771 
	C481.143738,311.390961 485.157043,317.461182 484.988586,327.622681 
	C484.724457,343.555939 471.717957,358.984528 456.421173,360.585327 
	C451.623047,342.709961 449.582733,325.092438 452.114594,307.139526 
z"/>
<path fill="#FDFEFE" opacity="1.000000" stroke="none" 
	d="
M281.128418,291.414001 
	C293.831909,290.387451 306.393158,291.306152 318.436859,295.227600 
	C323.565063,296.897339 328.090149,300.419434 332.929474,303.430420 
	C325.333984,305.522766 319.330780,309.214386 315.562561,316.551239 
	C314.620300,318.385834 311.063171,318.877411 308.030609,320.305084 
	C309.897888,321.168457 311.725830,322.013641 313.786072,322.966217 
	C313.786072,326.079468 313.786072,329.330139 313.786072,334.068207 
	C309.239014,330.685791 304.712677,328.517059 301.894806,324.985229 
	C295.005249,316.350128 288.805054,307.153229 282.580261,298.010315 
	C281.459717,296.364471 281.546722,293.896454 281.128418,291.414001 
z"/>
<path fill="#F1F9FA" opacity="1.000000" stroke="none" 
	d="
M174.555969,320.871460 
	C173.614105,325.207367 171.938522,329.539734 171.091080,334.028442 
	C168.106644,349.836548 170.492142,365.279205 175.329483,380.360870 
	C177.744492,387.890320 181.014694,395.145447 183.880371,402.915344 
	C178.994446,400.498535 174.126221,397.691010 169.106339,394.185303 
	C164.449509,378.304565 159.969086,363.114563 155.419556,347.945282 
	C154.436417,344.667236 152.565674,342.318939 148.630707,342.852112 
	C153.604416,331.405121 163.763184,326.008942 174.555969,320.871460 
z"/>
<path fill="#FDFEFE" opacity="1.000000" stroke="none" 
	d="
M445.912964,360.897736 
	C438.281616,359.570526 431.466156,356.673920 426.124451,349.967896 
	C423.909027,340.830383 421.848816,332.400909 419.696075,323.995087 
	C419.583771,323.556763 418.683685,323.320190 418.150360,322.989655 
	C419.948639,313.891052 426.831543,310.833618 434.759521,309.056580 
	C436.522339,308.661438 438.324097,308.439972 440.537598,308.573914 
	C441.050354,311.003662 441.033264,313.008057 441.232330,314.990814 
	C442.768982,330.295502 444.347473,345.595947 445.912964,360.897736 
z"/>
<path fill="#F1F9FA" opacity="1.000000" stroke="none" 
	d="
M338.906494,307.777832 
	C351.969513,306.007172 364.786957,306.973663 376.879425,312.403809 
	C383.195190,315.239899 383.237793,317.313812 378.411041,322.203552 
	C369.676910,331.051788 358.867218,335.796478 346.422852,337.641235 
	C346.532379,326.671051 345.457275,316.562988 338.906494,307.777832 
z"/>
<path fill="#FEFFFF" opacity="1.000000" stroke="none" 
	d="
M338.489197,307.785736 
	C345.457275,316.562988 346.532379,326.671051 346.014526,337.643250 
	C337.897217,340.086456 329.791870,339.702362 321.995026,336.946472 
	C320.262787,336.334198 318.564484,333.469574 318.226593,331.415649 
	C315.889069,317.207092 322.887878,309.042328 338.489197,307.785736 
z"/>
<path fill="#FDFEFE" opacity="1.000000" stroke="none" 
	d="
M250.100006,355.893951 
	C249.580505,372.263763 241.742813,384.488647 228.338974,393.379150 
	C227.752594,389.717590 227.201721,386.413727 227.284439,383.125824 
	C227.475647,375.527130 227.833694,367.925415 228.417801,360.347534 
	C228.646011,357.387024 230.440399,355.762939 233.836624,355.901123 
	C239.248703,356.121277 244.677994,355.918091 250.100006,355.893951 
z"/>
<path fill="#BAE4E9" opacity="1.000000" stroke="none" 
	d="
M446.373413,360.943359 
	C444.347473,345.595947 442.768982,330.295502 441.232330,314.990814 
	C441.033264,313.008057 441.050354,311.003662 440.927246,308.573364 
	C444.339661,307.776245 447.792145,307.415070 451.679626,307.096680 
	C449.582733,325.092438 451.623047,342.709961 456.024933,360.552490 
	C452.975311,360.962463 449.904602,360.975708 446.373413,360.943359 
z"/>
<path fill="#FDFEFE" opacity="1.000000" stroke="none" 
	d="
M361.940613,339.865631 
	C369.519684,335.199707 377.098755,330.533752 384.627899,325.898560 
	C387.180298,340.746918 376.794708,355.546722 360.363892,359.380127 
	C359.289062,358.739655 358.638489,358.387451 357.991882,357.622742 
	C359.310791,351.428650 360.625702,345.647156 361.940613,339.865631 
z"/>
<path fill="#FDFEFE" opacity="1.000000" stroke="none" 
	d="
M148.397308,343.122437 
	C152.565674,342.318939 154.436417,344.667236 155.419556,347.945282 
	C159.969086,363.114563 164.449509,378.304565 168.929352,393.909302 
	C157.266418,384.135132 148.789093,371.902588 146.315796,356.417145 
	C145.654953,352.279602 147.480072,347.745026 148.397308,343.122437 
z"/>
<path fill="#BCE5EA" opacity="1.000000" stroke="none" 
	d="
M250.101318,355.461029 
	C244.677994,355.918091 239.248703,356.121277 233.836624,355.901123 
	C230.440399,355.762939 228.646011,357.387024 228.417801,360.347534 
	C227.833694,367.925415 227.475647,375.527130 227.284439,383.125824 
	C227.201721,386.413727 227.752594,389.717590 228.014679,393.463501 
	C226.949615,394.600647 225.885559,395.288452 224.500900,396.007385 
	C223.459930,392.055908 222.232834,388.087982 222.117310,384.087891 
	C221.810394,373.462708 222.126770,362.820435 221.893021,352.191650 
	C221.801956,348.051605 223.808334,346.895264 227.327652,347.037323 
	C234.604279,347.331085 241.878464,347.685150 249.603424,348.034241 
	C250.069656,350.378723 250.086136,352.703400 250.101318,355.461029 
z"/>
<path fill="#F1F9FA" opacity="1.000000" stroke="none" 
	d="
M354.559052,365.141968 
	C350.454224,378.241943 345.950165,391.317474 341.232971,404.315643 
	C340.605255,406.045258 338.895874,407.382355 337.345154,408.950623 
	C335.699493,404.916870 334.396027,400.833801 333.336945,396.160858 
	C336.653992,387.117493 339.802979,378.690369 342.747864,370.192566 
	C343.522644,367.956726 343.222992,365.800629 339.931580,365.958588 
	C339.951172,365.747620 339.970734,365.536682 340.010071,365.005920 
	C344.717651,364.821838 349.405396,364.957611 354.559052,365.141968 
z"/>
<path fill="#F1F9FA" opacity="1.000000" stroke="none" 
	d="
M361.568420,339.923553 
	C360.625702,345.647156 359.310791,351.428650 357.529907,357.620972 
	C353.032349,357.975677 349.000732,357.919556 344.977997,357.425781 
	C345.313416,352.953094 345.639984,348.918030 345.966583,344.882965 
	C351.043152,343.249146 356.119690,341.615295 361.568420,339.923553 
z"/>
<path fill="#FDFEFE" opacity="1.000000" stroke="none" 
	d="
M345.518036,344.885529 
	C345.639984,348.918030 345.313416,352.953094 344.586060,357.460999 
	C342.467590,358.174438 340.749939,358.415009 339.032288,358.655609 
	C332.055786,356.740234 327.618835,351.902435 323.209106,344.888092 
	C331.176270,344.888092 338.122894,344.888092 345.518036,344.885529 
z"/>
<path fill="#FDFEFE" opacity="1.000000" stroke="none" 
	d="
M194.390869,304.986938 
	C198.830048,302.445709 203.392548,298.789429 208.539276,297.540283 
	C220.069138,294.741943 231.889603,293.141083 244.063446,291.065063 
	C242.492264,292.036316 240.539001,293.339600 238.391998,293.898254 
	C223.877350,297.674988 209.321701,301.294189 194.390869,304.986938 
z"/>
<path fill="#FDFEFE" opacity="1.000000" stroke="none" 
	d="
M151.426880,326.174225 
	C146.583435,318.416534 148.204376,315.885895 157.906174,316.068542 
	C159.874435,316.105591 161.825836,317.037689 163.992279,317.930847 
	C160.053177,320.887451 155.906815,323.470367 151.426880,326.174225 
z"/>
<path fill="#F1F9FA" opacity="1.000000" stroke="none" 
	d="
M418.029724,323.374542 
	C418.683685,323.320190 419.583771,323.556763 419.696075,323.995087 
	C421.848816,332.400909 423.909027,340.830383 425.975098,349.669067 
	C419.197937,342.556641 416.572266,333.764130 418.029724,323.374542 
z"/>
<path fill="#BAE4E9" opacity="1.000000" stroke="none" 
	d="
M339.214783,359.003174 
	C340.749939,358.415009 342.467590,358.174438 344.577209,357.898621 
	C349.000732,357.919556 353.032349,357.975677 357.525909,358.033539 
	C358.638489,358.387451 359.289062,358.739655 360.001465,359.373413 
	C353.126984,362.789825 346.247498,362.063477 339.214783,359.003174 
z"/>
<path fill="#F1F9FA" opacity="1.000000" stroke="none" 
	d="
M132.442703,354.925171 
	C128.361649,352.558411 131.193924,350.655060 132.917816,349.871765 
	C134.843262,348.996857 137.337952,349.374695 139.584900,349.207306 
	C139.279556,350.372711 139.341934,352.103058 138.594635,352.589417 
	C136.877914,353.706696 134.766891,354.218079 132.442703,354.925171 
z"/>
<path fill="#FDFEFE" opacity="1.000000" stroke="none" 
	d="
M382.942047,237.694366 
	C380.972168,241.661835 378.130524,242.859985 374.254303,241.503815 
	C374.729950,236.201401 378.355530,234.516388 382.942047,237.694366 
z"/>
<path fill="#FFFFFF" opacity="1.000000" stroke="none" 
	d="
M362.230164,230.966400 
	C362.150909,230.756302 362.351868,230.475922 362.799591,230.101044 
	C362.867737,230.303085 362.689087,230.599594 362.230164,230.966400 
z"/>
<path fill="#F1F9FA" opacity="1.000000" stroke="none" 
	d="
M393.983429,314.981567 
	C393.887177,315.021240 393.802948,315.073853 393.870575,315.071472 
	C394.022461,315.016449 393.995422,314.994568 393.983429,314.981567 
z"/>
<path fill="#FEFFFF" opacity="1.000000" stroke="none" 
	d="
M297.806702,228.724915 
	C293.620941,231.286423 289.449005,234.222137 284.813141,235.752228 
	C272.812347,239.713135 260.449463,241.575592 247.702576,241.066971 
	C231.940140,240.438019 218.491028,234.540985 206.794083,224.270416 
	C197.940689,216.496643 191.659744,206.776642 186.037354,196.141205 
	C201.370148,185.319916 207.662811,169.888855 208.627731,152.018448 
	C208.972290,145.637344 207.784302,139.116425 206.726868,132.753906 
	C206.436523,131.006927 204.249207,129.410522 202.652557,128.081070 
	C199.703690,125.625664 199.290924,123.213196 203.142365,121.849213 
	C208.734116,119.868889 214.518692,118.386284 220.293610,116.992027 
	C222.724915,116.405037 225.164642,117.552917 224.008301,120.437401 
	C220.195694,129.947830 226.847458,136.577408 230.449524,143.755325 
	C235.243790,153.308960 243.384140,160.064316 252.760284,165.768997 
	C255.101120,179.860764 261.155731,192.141418 270.299347,202.405899 
	C278.640259,211.769302 288.447968,219.826080 297.806702,228.724915 
z"/>
<path fill="#FFFFFF" opacity="1.000000" stroke="none" 
	d="
M305.958893,226.038940 
	C292.959991,219.686111 283.404846,209.484436 275.048676,198.046158 
	C268.948029,189.695343 264.254822,180.603073 262.033081,169.949722 
	C284.220093,174.003189 301.765076,166.181229 314.525482,148.201035 
	C318.411560,142.725327 319.562073,135.308197 322.411438,128.440628 
	C327.077515,128.727997 328.714142,131.768707 330.012573,135.378616 
	C332.260040,141.627121 335.856812,147.270523 341.901337,150.078125 
	C347.267242,152.570541 347.447998,156.483429 346.909729,161.019516 
	C346.483337,164.612717 345.704926,168.177841 344.878693,171.707657 
	C339.387878,195.166336 327.369934,213.973236 305.958893,226.038940 
z"/>
<path fill="#FEFFFF" opacity="1.000000" stroke="none" 
	d="
M313.097839,105.891129 
	C318.486237,115.145004 316.894867,124.587692 313.147888,133.694061 
	C304.247772,155.324219 286.004456,165.019272 261.225372,160.901627 
	C261.143829,155.710007 260.965729,151.172272 261.679504,146.779449 
	C263.994385,132.532455 271.727936,120.961388 280.506714,109.956123 
	C285.354553,103.878784 291.548828,100.769241 299.295319,102.083458 
	C303.976746,102.877663 308.502258,104.590851 313.097839,105.891129 
z"/>
<path fill="#FEFFFF" opacity="1.000000" stroke="none" 
	d="
M174.317932,191.182251 
	C157.884796,197.596008 143.476883,192.996475 130.229645,182.845184 
	C120.550400,175.428040 116.664314,165.012863 116.447655,153.241302 
	C116.326675,146.668213 120.111053,141.435364 125.163757,137.716293 
	C130.187759,134.018341 135.878189,131.225769 141.638275,128.433777 
	C143.308807,134.957031 144.249146,141.199417 146.132263,147.143066 
	C146.764099,149.137329 149.931320,151.847488 151.709229,151.686417 
	C158.104340,151.107101 159.322281,155.336060 161.108719,159.734619 
	C165.386765,170.267929 169.899765,180.705841 174.317932,191.182251 
z"/>
<path fill="#F1F9FA" opacity="1.000000" stroke="none" 
	d="
M306.184174,226.308914 
	C327.369934,213.973236 339.387878,195.166336 344.878693,171.707657 
	C345.704926,168.177841 346.483337,164.612717 346.909729,161.019516 
	C347.447998,156.483429 347.267242,152.570541 341.901337,150.078125 
	C335.856812,147.270523 332.260040,141.627121 330.012573,135.378616 
	C328.714142,131.768707 327.077515,128.727997 322.504089,128.063919 
	C322.963898,123.874016 323.777039,119.721214 324.717102,115.173058 
	C327.141663,116.309181 329.439270,117.840660 331.505554,119.759750 
	C330.850555,121.132278 330.104095,122.101082 330.053955,123.104652 
	C329.628448,131.627625 333.342743,138.546539 339.054230,144.420288 
	C341.292328,146.721939 344.294922,148.280228 346.949341,150.177063 
	C347.398438,149.824661 347.847504,149.472275 348.296570,149.119873 
	C347.882721,143.713196 347.468872,138.306519 347.054993,132.899841 
	C354.593414,140.071106 362.131836,147.242386 369.356750,154.710022 
	C367.217316,155.004776 365.382141,155.119293 363.567505,154.975281 
	C360.588684,154.738922 359.563599,156.325729 358.985077,158.975830 
	C357.192841,167.185608 355.369720,175.395630 353.254578,183.526474 
	C349.149628,199.306320 341.200439,212.725296 328.439148,223.145294 
	C325.439880,225.594284 322.765686,228.441360 319.941925,231.105286 
	C315.431091,229.596481 310.920288,228.087677 306.184174,226.308914 
z"/>
<path fill="#FEFFFF" opacity="1.000000" stroke="none" 
	d="
M177.998718,122.988754 
	C183.948959,123.119667 188.727798,125.891792 191.904861,130.593719 
	C199.396088,141.680344 201.884140,154.062546 199.381744,167.196030 
	C197.644150,176.315628 191.572754,182.367493 183.124329,186.805222 
	C175.633575,175.230026 173.313492,162.404495 172.064728,149.361053 
	C171.170151,140.017166 174.410858,131.420380 177.998718,122.988754 
z"/>
<path fill="#FDFEFE" opacity="1.000000" stroke="none" 
	d="
M250.968033,157.076218 
	C238.753326,147.612854 234.568192,134.355026 234.320557,119.743637 
	C234.253906,115.812088 236.279633,111.055519 238.900421,108.021263 
	C245.784134,100.051598 254.812241,95.097427 265.595154,93.320557 
	C265.779694,97.953491 266.361786,102.368759 265.242371,106.299454 
	C261.985352,117.735786 257.854675,128.920807 254.459747,140.321442 
	C252.837311,145.769836 252.104034,151.482986 250.968033,157.076218 
z"/>
<path fill="#BAE4E9" opacity="1.000000" stroke="none" 
	d="
M251.181641,157.347473 
	C252.104034,151.482986 252.837311,145.769836 254.459747,140.321442 
	C257.854675,128.920807 261.985352,117.735786 265.242371,106.299454 
	C266.361786,102.368759 265.779694,97.953491 265.997833,93.331429 
	C278.323486,87.999283 290.766479,87.379669 303.171722,92.255959 
	C308.859436,94.491684 311.603882,99.448128 313.088776,105.523354 
	C308.502258,104.590851 303.976746,102.877663 299.295319,102.083458 
	C291.548828,100.769241 285.354553,103.878784 280.506714,109.956123 
	C271.727936,120.961388 263.994385,132.532455 261.679504,146.779449 
	C260.965729,151.172272 261.143829,155.710007 260.876892,160.658447 
	C257.691925,159.963242 254.543579,158.790985 251.181641,157.347473 
z"/>
<path fill="#F1F9FA" opacity="1.000000" stroke="none" 
	d="
M177.597839,122.877625 
	C174.410858,131.420380 171.170151,140.017166 172.064728,149.361053 
	C173.313492,162.404495 175.633575,175.230026 182.804779,186.920319 
	C180.421387,188.427002 177.715424,189.763885 174.663696,191.141510 
	C169.899765,180.705841 165.386765,170.267929 161.108719,159.734619 
	C159.322281,155.336060 158.104340,151.107101 151.709229,151.686417 
	C149.931320,151.847488 146.764099,149.137329 146.132263,147.143066 
	C144.249146,141.199417 143.308807,134.957031 142.000885,128.407349 
	C144.430359,127.027885 146.859085,126.072418 149.598572,125.480171 
	C149.665680,128.053619 148.434097,130.931274 149.383011,132.335831 
	C151.390121,135.306717 159.601044,134.275299 163.205917,131.202240 
	C167.323517,127.692085 163.335007,125.450233 161.916092,122.803345 
	C167.009705,122.791061 172.103333,122.778778 177.597839,122.877625 
z"/>
<path fill="#FDFEFE" opacity="1.000000" stroke="none" 
	d="
M186.398056,115.901695 
	C188.665543,112.902008 190.854889,109.282509 194.039764,107.149498 
	C207.681976,98.012871 223.327789,94.132019 239.193573,91.061455 
	C241.572815,90.600983 244.044601,90.618767 246.727890,90.692612 
	C241.922546,94.947769 236.950058,99.045761 231.744659,102.822746 
	C230.367157,103.822250 227.800018,104.753250 226.591400,104.132988 
	C222.187988,101.873116 218.242523,103.309837 214.113495,104.547203 
	C209.851349,105.824448 205.564117,107.031868 201.248520,108.112831 
	C197.209991,109.124397 193.240723,109.912491 191.036880,114.228691 
	C190.508789,115.262955 188.244003,115.410461 186.398056,115.901695 
z"/>
<path fill="#FEFFFF" opacity="1.000000" stroke="none" 
	d="
M161.501801,122.817276 
	C163.335007,125.450233 167.323517,127.692085 163.205917,131.202240 
	C159.601044,134.275299 151.390121,135.306717 149.383011,132.335831 
	C148.434097,130.931274 149.665680,128.053619 149.961395,125.488556 
	C153.704803,124.366219 157.396149,123.598709 161.501801,122.817276 
z"/>
<path fill="#FEFFFF" opacity="1.000000" stroke="none" 
	d="
M320.248779,231.366211 
	C322.765686,228.441360 325.439880,225.594284 328.439148,223.145294 
	C341.200439,212.725296 349.149628,199.306320 353.254578,183.526474 
	C355.369720,175.395630 357.192841,167.185608 358.985077,158.975830 
	C359.563599,156.325729 360.588684,154.738922 363.567505,154.975281 
	C365.382141,155.119293 367.217316,155.004776 369.488678,155.012741 
	C377.095764,164.046524 383.665985,173.274628 385.356598,185.213226 
	C386.376434,192.415192 385.057404,199.044724 380.852020,204.518723 
	C365.690002,224.254486 346.134399,234.786163 320.248779,231.366211 
z"/>
<path fill="#FEFFFF" opacity="1.000000" stroke="none" 
	d="
M346.894897,132.610428 
	C347.468872,138.306519 347.882721,143.713196 348.296570,149.119873 
	C347.847504,149.472275 347.398438,149.824661 346.949341,150.177063 
	C344.294922,148.280228 341.292328,146.721939 339.054230,144.420288 
	C333.342743,138.546539 329.628448,131.627625 330.053955,123.104652 
	C330.104095,122.101082 330.850555,121.132278 331.671143,120.054024 
	C336.957031,124.080803 341.845947,128.200912 346.894897,132.610428 
z"/>
<path fill="#FDFEFE" opacity="1.000000" stroke="none" 
	d="
M392.400757,198.570740 
	C393.192657,197.345261 394.809967,195.577560 394.956024,195.691772 
	C397.602417,197.760666 400.177887,199.954971 402.493256,202.384766 
	C402.985260,202.901138 402.777740,204.920837 402.194977,205.400696 
	C401.549225,205.932358 399.719269,205.943192 399.074860,205.394318 
	C396.744843,203.409729 394.696228,201.094742 392.400757,198.570740 
z"/>
<path fill="#FFFFFF" opacity="1.000000" stroke="none" 
	d="
M77.560211,240.890656 
	C85.495285,220.730728 112.325829,218.977432 124.062561,232.342224 
	C131.282211,240.563324 133.103943,249.539474 129.255035,259.505859 
	C125.438614,269.388092 117.584724,274.848114 107.322769,275.888245 
	C89.620514,277.682495 75.454285,265.042206 76.049004,248.541962 
	C76.137108,246.097473 76.925217,243.678207 77.560211,240.890656 
z"/>
<path fill="#FFFFFF" opacity="1.000000" stroke="none" 
	d="
M214.001877,244.999329 
	C223.384796,263.207886 211.182037,282.658142 190.570236,283.193848 
	C177.756607,283.526855 165.675476,274.817749 162.778488,262.156860 
	C159.391266,247.353424 171.070267,231.636230 186.372147,231.018845 
	C189.648682,230.886642 192.952255,231.425095 196.654526,232.176422 
	C201.345505,238.678757 206.221878,243.837921 214.001877,244.999329 
z"/>
<path fill="#F1F9FA" opacity="1.000000" stroke="none" 
	d="
M213.876846,244.684509 
	C206.221878,243.837921 201.345505,238.678757 197.031097,232.354675 
	C204.744720,233.197998 209.729355,238.131607 213.876846,244.684509 
z"/>
<path fill="#FDFEFE" opacity="1.000000" stroke="none" 
	d="
M250.499695,472.586975 
	C245.561035,473.659851 243.027664,470.858185 243.659317,464.902771 
	C247.618896,466.001007 249.765396,468.492279 250.499695,472.586975 
z"/>
<path fill="#FDFEFE" opacity="1.000000" stroke="none" 
	d="
M339.547180,365.967224 
	C343.222992,365.800629 343.522644,367.956726 342.747864,370.192566 
	C339.802979,378.690369 336.653992,387.117493 333.307922,395.772644 
	C332.331207,388.640747 331.436981,381.318970 330.987396,373.969940 
	C330.651337,368.476501 334.313904,366.475861 339.547180,365.967224 
z"/>
</svg>