<svg xmlns="http://www.w3.org/2000/svg" width="250" height="255" viewBox="0 0 250 255" version="1.1"><path d="M 218 24.933 C 216.625 25.252, 208.218 27.964, 199.317 30.960 L 183.135 36.409 183.722 37.359 L 184.309 38.309 183.196 37.621 L 182.083 36.933 126.291 56.066 C 95.606 66.588, 60.600 78.577, 48.500 82.707 L 26.500 90.217 24.875 91.650 L 23.250 93.084 23.211 95.792 L 23.172 98.500 43.827 119.250 C 68.380 143.916, 61.130 143.283, 90.755 123.348 C 167.483 71.715, 182.076 61.929, 190.849 56.225 L 200.500 49.950 212.187 37.976 L 223.874 26.003 222.187 25.179 L 220.500 24.354 218 24.933" stroke="none" fill="#25a584" fill-rule="evenodd"/><path d="M 210.067 40.006 L 197.634 52.892 196.886 52.430 C 196.475 52.175, 195.813 52.494, 195.415 53.138 L 194.691 54.309 195.845 53.595 C 198.203 52.139, 189.694 65.058, 125.767 160 L 109.943 183.500 89.722 184.031 L 69.500 184.563 89.509 184.781 L 109.518 185 130.500 206 L 151.482 227 154.218 227 L 156.954 227 158.443 224.728 C 159.261 223.478, 165.986 204.691, 173.386 182.978 C 180.786 161.265, 192.768 126.175, 200.013 105 C 207.259 83.825, 215.844 58.707, 219.093 49.182 C 222.342 39.658, 225 30.770, 225 29.432 L 225 27 223.750 27.060 L 222.500 27.120 210.067 40.006" stroke="none" fill="#2b7c69" fill-rule="evenodd"/><path d="M 181.839 62.799 C 173.226 68.685, 143.650 88.575, 116.115 107 L 66.052 140.500 66.026 161.050 L 66 181.600 67.200 182.800 L 68.400 184 89.044 184 L 109.687 184 123.266 163.750 C 130.734 152.613, 150.384 123.313, 166.932 98.639 C 199.919 49.454, 198.245 51.980, 197.809 52.049 C 197.639 52.076, 190.453 56.914, 181.839 62.799" stroke="none" fill="#052d24" fill-rule="evenodd"/></svg>