<svg xmlns="http://www.w3.org/2000/svg" width="1448" height="980" viewBox="0 0 1448 980" version="1.1"><path d="M 1275.502 141.995 C 1246.353 172.241, 1222.353 197.440, 1222.169 197.994 C 1221.741 199.277, 1225.262 199.266, 1259.205 197.880 L 1286.910 196.749 1310.006 219.124 C 1322.709 231.431, 1333.602 241.674, 1334.213 241.887 C 1335.014 242.167, 1335.151 237.574, 1334.705 225.387 C 1334.365 216.099, 1333.302 181.163, 1332.342 147.750 C 1331.176 107.133, 1330.250 87, 1329.549 87.001 C 1328.972 87.002, 1304.651 111.749, 1275.502 141.995 M 1266.497 226.285 C 1262.242 234.653, 1258.365 241.928, 1257.881 242.450 C 1256.338 244.114, 1256.878 244.740, 1262.682 248.016 C 1268.133 251.092, 1268.420 251.147, 1269.735 249.361 C 1271.581 246.855, 1286 218.366, 1286 217.225 C 1286 216.354, 1284.069 215.278, 1277.366 212.411 L 1274.231 211.070 1266.497 226.285 M 1240.422 272.771 C 1237.805 277.022, 1233.264 284.023, 1230.332 288.330 C 1227.399 292.636, 1225 296.306, 1225 296.486 C 1225 297.054, 1234.970 304.001, 1235.752 303.977 C 1236.527 303.954, 1243.841 293.182, 1252.167 279.803 L 1256.957 272.105 1254.228 270.187 C 1252.728 269.132, 1250.078 267.543, 1248.340 266.655 L 1245.181 265.042 1240.422 272.771 M 1206.375 320.750 C 1204.249 323.363, 1199.020 329.406, 1194.755 334.181 C 1190.490 338.956, 1187 343.252, 1187 343.728 C 1187 344.913, 1194.345 352, 1195.573 352 C 1197.482 352, 1221 326.022, 1221 323.914 C 1221 322.862, 1212.561 316, 1211.267 316 C 1210.703 316, 1208.501 318.137, 1206.375 320.750 M 1161.530 365.575 C 1157.697 368.635, 1151.622 373.201, 1148.030 375.721 C 1144.439 378.242, 1141.113 380.645, 1140.640 381.062 C 1139.982 381.642, 1143.545 388.066, 1146.658 391.912 C 1146.841 392.139, 1148.050 391.843, 1149.343 391.254 C 1152.183 389.959, 1175.071 372.824, 1176.895 370.626 C 1177.990 369.307, 1177.619 368.371, 1174.474 364.534 C 1172.431 362.040, 1170.251 360.003, 1169.630 360.006 C 1169.008 360.009, 1165.364 362.515, 1161.530 365.575 M 1111.500 397.007 C 1107.100 399.115, 1099.563 402.281, 1094.750 404.043 C 1089.938 405.804, 1086 407.560, 1086 407.944 C 1086 409.294, 1089.274 418.509, 1090.063 419.380 C 1091.311 420.758, 1122.178 408.222, 1125.352 405.048 C 1125.868 404.532, 1124.902 401.825, 1123.046 398.581 C 1121.290 395.511, 1119.774 393.039, 1119.677 393.087 C 1119.579 393.134, 1115.900 394.898, 1111.500 397.007 M 725.206 403.739 L 719.911 404.108 720.206 410.804 C 720.408 415.406, 720.891 417.469, 721.750 417.400 C 722.438 417.345, 730.875 417.233, 740.500 417.150 L 758 417 758 410.639 L 758 404.279 752.750 403.648 C 747.468 403.013, 735.029 403.054, 725.206 403.739 M 781.821 409.500 C 781.420 419.614, 779.147 418.283, 800 420.143 C 810.175 421.050, 818.705 421.597, 818.955 421.358 C 819.837 420.516, 820.222 408, 819.366 407.988 C 818.890 407.982, 811.300 407.308, 802.500 406.492 C 780.233 404.427, 782.033 404.165, 781.821 409.500 M 674.465 408.035 C 667.846 409.053, 661.260 410.331, 659.830 410.874 L 657.231 411.863 658.548 417.531 C 659.273 420.649, 660.108 423.441, 660.403 423.736 C 660.698 424.032, 665.341 423.561, 670.720 422.690 C 676.099 421.819, 682.750 420.838, 685.500 420.509 C 696.941 419.143, 697.001 419.120, 696.989 416.205 C 696.983 414.717, 696.699 411.813, 696.358 409.750 C 695.743 406.030, 695.702 406.001, 691.119 406.092 C 688.579 406.143, 681.084 407.018, 674.465 408.035 M 843.590 414.247 C 842.420 421.819, 842.379 424.206, 843.410 424.572 C 846.280 425.591, 879.467 428.929, 880.099 428.262 C 880.497 427.843, 880.975 424.813, 881.161 421.529 L 881.500 415.557 868.500 413.939 C 861.350 413.049, 852.933 412.022, 849.796 411.657 L 844.092 410.993 843.590 414.247 M 1054.500 415.545 C 1051.200 416.281, 1043.802 417.596, 1038.060 418.466 C 1032.317 419.336, 1027.479 420.188, 1027.308 420.359 C 1027.136 420.530, 1027.286 423.445, 1027.641 426.835 L 1028.285 433 1031.892 432.997 C 1036.693 432.993, 1057.542 429.460, 1065.252 427.345 C 1067.076 426.844, 1067.064 426.556, 1064.861 417.750 C 1063.808 413.541, 1063.636 413.505, 1054.500 415.545 M 624 420.072 C 609.621 424.999, 598 430.183, 598 431.670 C 598 433.080, 602.725 443, 603.396 443 C 603.595 443, 606.379 441.800, 609.582 440.334 C 612.785 438.867, 620.313 435.969, 626.311 433.892 C 632.309 431.816, 637.373 429.960, 637.565 429.768 C 638.185 429.148, 634.280 417.591, 633.376 417.371 C 632.894 417.255, 628.675 418.470, 624 420.072 M 904.470 424.432 C 904.078 428.094, 903.931 431.264, 904.143 431.477 C 904.763 432.097, 941.220 435.114, 941.745 434.589 C 942.007 434.326, 942.451 431.247, 942.732 427.745 L 943.244 421.378 927.872 420.124 C 919.417 419.434, 910.854 418.623, 908.842 418.322 L 905.183 417.774 904.470 424.432 M 966.667 422.667 C 966.300 423.033, 966 426.183, 966 429.667 L 966 436 984.941 436 C 995.359 436, 1004.131 435.596, 1004.436 435.103 C 1004.741 434.609, 1004.704 431.459, 1004.353 428.103 L 1003.715 422 985.524 422 C 975.519 422, 967.033 422.300, 966.667 422.667 M 566.352 448.791 C 556.063 456.001, 545.027 465.180, 545.012 466.542 C 545.005 467.115, 546.980 469.527, 549.400 471.902 L 553.800 476.220 560.325 470.685 C 563.914 467.641, 570.493 462.597, 574.946 459.477 L 583.042 453.804 580.829 450.152 C 579.612 448.143, 578.144 445.712, 577.567 444.750 C 576.991 443.788, 576.065 443.018, 575.509 443.041 C 574.954 443.063, 570.834 445.651, 566.352 448.791 M 467.750 484.579 C 467.337 484.994, 467 488.183, 467 491.667 L 467 498 477.750 498.006 C 483.663 498.009, 492.154 498.296, 496.620 498.644 L 504.740 499.276 505.241 492.888 C 505.517 489.375, 505.463 486.211, 505.121 485.858 C 504.205 484.912, 468.629 483.694, 467.750 484.579 M 520.713 492.752 C 511.743 504.852, 505.880 514.160, 506.217 515.764 C 506.372 516.507, 508.783 518.430, 511.574 520.038 L 516.649 522.962 523.489 512.481 C 529.264 503.631, 530.731 502.001, 532.914 502.005 C 534.336 502.008, 542.023 503.097, 549.996 504.426 C 557.969 505.754, 564.646 506.688, 564.833 506.500 C 565.469 505.864, 566.952 498.516, 566.976 495.881 C 567.003 492.927, 568.741 493.423, 546 489.895 C 538.575 488.743, 531.825 487.239, 531 486.552 C 527.678 483.788, 527.100 484.137, 520.713 492.752 M 432.924 486.006 C 428.757 486.406, 420.712 487.300, 415.047 487.994 L 404.745 489.256 405.288 495.244 C 405.587 498.537, 406.207 501.591, 406.666 502.031 C 407.125 502.471, 412.675 502.212, 419 501.455 C 425.325 500.699, 433.591 499.795, 437.369 499.447 L 444.237 498.815 443.545 492.692 C 442.829 486.363, 442.373 484.901, 441.191 485.140 C 440.811 485.217, 437.091 485.607, 432.924 486.006 M 362 497.866 C 354.025 499.910, 346.712 501.887, 345.750 502.260 C 343.574 503.102, 343.544 505.305, 345.623 511.406 C 347.024 515.519, 347.536 516.082, 349.373 515.529 C 351.612 514.855, 375.453 508.741, 380.372 507.579 C 383.179 506.916, 383.229 506.787, 382.586 501.938 C 381.681 495.113, 381.117 493.988, 378.643 494.075 C 377.464 494.117, 369.975 495.823, 362 497.866 M 590.727 499.691 C 589.476 501.876, 587.866 511.250, 588.631 511.898 C 589.109 512.303, 591.975 513.232, 595 513.962 C 598.025 514.691, 605.383 516.829, 611.352 518.712 C 617.321 520.595, 622.730 521.934, 623.373 521.687 C 624.954 521.080, 628.174 510.774, 627.113 509.713 C 626.274 508.874, 600.381 500.850, 594.345 499.558 C 592.610 499.187, 590.982 499.247, 590.727 499.691 M 305 516.865 C 290.799 522.905, 285 525.716, 285 526.559 C 285 527.058, 289.972 537.197, 290.522 537.819 C 290.677 537.994, 296.361 535.696, 303.152 532.711 C 309.943 529.726, 317.637 526.484, 320.250 525.506 C 322.863 524.528, 325 523.379, 325 522.953 C 325 520.782, 320.571 511.008, 319.611 511.061 C 319 511.095, 312.425 513.706, 305 516.865 M 650 519.376 C 650 519.582, 648.910 522.215, 647.579 525.226 L 645.158 530.700 661.543 538.931 C 670.555 543.458, 678.352 546.901, 678.869 546.581 C 679.387 546.261, 681.012 543.949, 682.481 541.443 C 684.505 537.988, 684.882 536.563, 684.039 535.547 C 683.428 534.811, 676.065 530.786, 667.677 526.604 C 654.056 519.813, 650 518.154, 650 519.376 M 259 539.740 C 235.261 555.266, 231.068 558.283, 231.746 559.351 C 234.917 564.344, 238.373 569, 238.909 569 C 239.263 569, 245.947 564.764, 253.763 559.588 C 261.579 554.411, 268.543 549.981, 269.237 549.744 C 270.159 549.429, 269.851 548.121, 268.098 544.906 C 263.894 537.195, 263.357 536.890, 259 539.740 M 491.032 544.268 C 487.485 552.091, 481 570.609, 481 572.914 C 481 574.130, 482.669 575.161, 486.684 576.426 C 492.153 578.150, 492.417 578.150, 493.684 576.418 C 494.408 575.428, 495 574.009, 495 573.264 C 495 572.197, 501.595 554.282, 505.487 544.780 C 506.052 543.400, 505.058 542.558, 500.471 540.530 C 497.325 539.138, 494.554 538, 494.313 538 C 494.072 538, 492.596 540.821, 491.032 544.268 M 701.585 554.884 C 699.613 557.570, 698 559.991, 698 560.264 C 698 560.537, 700.482 562.634, 703.516 564.924 C 706.550 567.215, 712.879 572.521, 717.581 576.716 L 726.131 584.343 730.815 579.616 L 735.500 574.888 728.772 568.474 C 721.261 561.313, 707.328 550, 706.020 550 C 705.553 550, 703.557 552.198, 701.585 554.884 M 197.969 586.645 C 190.836 593.599, 185 599.847, 185 600.528 C 185 601.825, 192.457 609.020, 193.753 608.973 C 194.164 608.958, 200.422 603.221, 207.661 596.223 L 220.822 583.500 216.807 578.750 C 214.599 576.138, 212.375 574, 211.865 574 C 211.355 574, 205.101 579.690, 197.969 586.645 M 746.500 597.082 C 744.300 598.744, 742.134 600.469, 741.687 600.915 C 741.241 601.360, 742.871 604.599, 745.312 608.113 C 747.752 611.626, 752.069 618.636, 754.904 623.690 L 760.060 632.880 764.780 630.675 C 772.624 627.010, 772.445 627.660, 767.973 619.065 C 763.467 610.404, 753.056 594.778, 751.500 594.340 C 750.950 594.186, 748.700 595.419, 746.500 597.082 M 474.551 599.181 C 473.560 602.158, 471.898 615.968, 471.324 625.992 L 470.712 636.690 476.606 637.316 C 483.944 638.094, 484.988 637.009, 485.031 628.559 C 485.060 622.928, 485.963 614.262, 487.552 604.380 L 488.214 600.259 483.357 599.573 C 480.686 599.195, 477.710 598.656, 476.745 598.374 C 475.780 598.092, 474.793 598.456, 474.551 599.181 M 162.506 627.449 C 156.474 635.605, 147 650.102, 147 651.177 C 147 651.961, 157.977 658.392, 158.404 657.857 C 158.561 657.661, 161.972 652.550, 165.984 646.500 C 169.995 640.450, 174.650 633.753, 176.328 631.617 L 179.379 627.734 174.939 623.897 C 172.498 621.786, 169.941 620.046, 169.257 620.030 C 168.574 620.013, 165.535 623.352, 162.506 627.449 M 773.858 652.131 L 768.215 654.095 770.600 662.764 C 771.912 667.532, 773.502 675.273, 774.133 679.967 C 774.764 684.660, 775.607 688.867, 776.005 689.315 C 776.404 689.763, 779.545 689.811, 782.986 689.422 L 789.242 688.714 788.584 683.107 C 787.140 670.790, 782.193 650.835, 780.478 650.409 C 779.940 650.276, 776.961 651.051, 773.858 652.131 M 477.500 660.750 C 474.750 660.953, 472.155 661.461, 471.733 661.877 C 470.520 663.074, 475.641 697.974, 477.268 699.601 C 477.998 700.331, 488.928 697.925, 489.565 696.894 C 489.826 696.472, 489.157 691.036, 488.078 684.813 C 486.999 678.591, 485.752 670.611, 485.308 667.081 C 484.864 663.550, 484.050 660.598, 483.500 660.520 C 482.950 660.443, 480.250 660.546, 477.500 660.750 M 131.481 679.250 C 125.842 691.928, 120 706.258, 120 707.412 C 120 708.751, 131.714 713.288, 132.360 712.199 C 132.588 711.815, 134.837 706.449, 137.357 700.276 C 139.878 694.103, 143.109 686.746, 144.537 683.927 C 145.966 681.108, 146.992 678.675, 146.817 678.521 C 145.920 677.729, 135.940 673, 135.164 673 C 134.668 673, 133.010 675.813, 131.481 679.250 M 776.514 713 C 776.354 713.275, 775.455 718.436, 774.516 724.470 C 773.576 730.503, 771.966 738.145, 770.936 741.452 C 769.907 744.759, 769.388 747.736, 769.782 748.067 C 771.427 749.448, 780.168 752.149, 781.427 751.666 C 783.237 750.972, 788.068 730.619, 788.744 720.846 L 789.273 713.191 783.039 712.846 C 779.610 712.656, 776.674 712.725, 776.514 713 M 490.147 721.163 C 484.968 723.150, 484.814 723.319, 485.413 726.358 C 486.108 729.884, 499.267 757.429, 500.671 758.297 C 501.774 758.978, 512 753.207, 512 751.902 C 512 751.389, 510.596 748.482, 508.880 745.441 C 507.164 742.400, 503.811 735.327, 501.430 729.723 C 499.048 724.119, 496.740 719.438, 496.300 719.322 C 495.860 719.205, 493.091 720.034, 490.147 721.163 M 111.062 735.635 C 109.697 740.450, 105.241 762.455, 104.815 766.485 C 104.540 769.093, 104.879 769.552, 107.500 770.117 C 109.150 770.472, 112.167 770.817, 114.205 770.882 C 117.740 770.995, 117.937 770.829, 118.512 767.250 C 119.019 764.100, 122.994 744.907, 124.721 737.268 C 125.283 734.785, 122.998 733.503, 116.020 732.387 C 112.224 731.780, 112.139 731.836, 111.062 735.635 M 755.416 774.738 C 753.262 777.894, 748.195 783.950, 744.156 788.197 L 736.812 795.919 741.034 800.926 C 744.475 805.006, 745.586 805.757, 747.036 804.981 C 751.916 802.369, 771.801 777.106, 770.559 775.095 C 769.856 773.959, 761.460 769, 760.238 769 C 759.740 769, 757.570 771.582, 755.416 774.738 M 520.016 775.176 L 514.980 779.186 517.921 782.900 C 521.504 787.424, 541.720 807, 542.808 807 C 543.238 807, 545.273 804.792, 547.331 802.093 L 551.073 797.186 538.063 784.176 L 525.053 771.166 520.016 775.176 M 102.189 812.872 C 102.360 823.303, 102.730 832.067, 103.010 832.346 C 103.291 832.625, 106.316 832.600, 109.733 832.290 L 115.946 831.727 115.619 813.114 L 115.292 794.500 108.585 794.203 L 101.878 793.906 102.189 812.872 M 567.095 814.485 C 565.393 817.502, 564 820.196, 564 820.472 C 564 822.220, 595.280 835, 599.558 835 C 600.787 835, 601.556 833.041, 603.505 824.941 C 604.097 822.481, 603.765 822.265, 594.810 819.304 C 589.690 817.610, 582.163 814.599, 578.085 812.612 C 574.006 810.626, 570.562 809, 570.430 809 C 570.299 809, 568.798 811.468, 567.095 814.485 M 710 812.919 C 705.875 815.019, 698.900 817.963, 694.500 819.460 C 690.100 820.958, 686.189 822.479, 685.809 822.841 C 685.429 823.204, 685.841 826.087, 686.724 829.250 C 687.898 833.457, 688.800 835, 690.085 835 C 694.896 835, 725.016 822.262, 724.991 820.239 C 724.974 818.917, 718.981 808.999, 718.230 809.050 C 717.828 809.077, 714.125 810.818, 710 812.919 M 626.477 827.035 C 626.296 827.329, 625.839 830.300, 625.462 833.637 L 624.775 839.705 628.013 840.353 C 632.083 841.167, 658.726 841.180, 661.750 840.370 C 663.626 839.867, 663.998 839.080, 663.986 835.633 C 663.956 826.596, 665.102 827.123, 644.797 826.793 C 634.902 826.632, 626.658 826.741, 626.477 827.035 M 112 855.400 C 106.990 856.461, 106.527 856.784, 106.807 859.032 C 107.892 867.765, 115.906 894, 117.489 894 C 119.439 894, 127.965 890.866, 128.538 889.939 C 128.835 889.458, 127.726 884.662, 126.072 879.282 C 124.419 873.902, 122.264 866.159, 121.283 862.076 C 120.302 857.993, 119.050 854.558, 118.500 854.444 C 117.950 854.330, 115.025 854.760, 112 855.400" stroke="none" fill="#dbff9a" fill-rule="evenodd"/></svg>