<svg xmlns="http://www.w3.org/2000/svg" width="256" height="249" viewBox="0 0 256 249" version="1.1"><path d="M 110 21.501 C 100.876 23.345, 91.368 26.991, 82.595 32.011 L 75.082 36.310 68.028 42.748 C 52.016 57.361, 42.227 75.094, 38.947 95.427 L 37.725 103.001 38.281 114.750 L 38.836 126.500 40.943 133.826 C 46.869 154.435, 52.547 162.216, 96.348 209.753 C 110.238 224.829, 114.826 228.885, 120.315 230.944 L 123.130 232 128.369 232 L 133.607 232 138.718 229.453 L 143.829 226.906 154.239 215.703 C 202.521 163.742, 208.940 155.101, 215.057 133.826 L 217.164 126.500 217.719 114.750 L 218.275 103.001 217.053 95.427 C 213.757 74.997, 204.390 57.898, 188.445 43.205 L 181.032 36.375 173.462 32.044 C 164.312 26.808, 154.999 23.310, 145.162 21.414 L 137.824 20 127.162 20.094 L 116.500 20.188 110 21.501 M 120.365 84.029 C 118.640 84.562, 115.078 86.461, 112.449 88.249 L 107.668 91.500 104.767 96.697 L 101.866 101.895 101.323 107.197 L 100.780 112.500 101.905 116.663 L 103.030 120.825 106.292 125.558 L 109.553 130.291 115.027 133.396 L 120.500 136.500 128 136.477 L 135.500 136.454 139.634 134.265 C 144.913 131.472, 149.524 126.854, 152.124 121.757 L 154.171 117.745 154.696 112.622 L 155.220 107.500 154.095 103.337 L 152.970 99.175 149.708 94.442 L 146.447 89.709 141.185 86.736 L 135.923 83.764 129.712 83.412 L 123.500 83.061 120.365 84.029" stroke="none" fill="#040404" fill-rule="evenodd"/></svg>