<?xml version="1.0" encoding="UTF-8"?>
<svg id="Calque_2" data-name="Calque 2" xmlns="http://www.w3.org/2000/svg" viewBox="0 0 81.42 25.23">
  <defs>
    <style>
      .cls-1 {
        fill: #535353;
      }

      .cls-1, .cls-2 {
        stroke-width: 0px;
      }

      .cls-2 {
        fill: #df2f75;
      }
    </style>
  </defs>
  <g id="Calque_3" data-name="Calque 3">
    <g>
      <path class="cls-2" d="M13.42,18.13c0,3.96-3,7.09-6.71,7.09S0,22.11,0,18.13s3-7.07,6.71-7.07,6.71,3.04,6.71,7.07ZM11.78,18.13c0-3.13-2.22-5.49-5.07-5.49s-5.07,2.41-5.07,5.49,2.28,5.49,5.07,5.49,5.07-2.41,5.07-5.49Z"/>
      <path class="cls-2" d="M17.44,24.99h-1.66v-13.6h5.69c2.79,0,4.35,1.7,4.35,4.11s-1.56,4.11-4.35,4.11h-4.04v5.37ZM17.44,12.98v5.05h4.04c1.58,0,2.71-.75,2.71-2.53s-1.13-2.53-2.71-2.53h-4.04Z"/>
      <path class="cls-2" d="M32.57,12.98v12.01h-1.66v-12.01h-4.25v-1.59h10.16v1.59h-4.25Z"/>
      <path class="cls-2" d="M40.47,24.99h-1.66v-13.6h1.66v13.6Z"/>
      <path class="cls-2" d="M54.47,23.05l1.83,1.94h-2.22l-.84-.88c-1.03.71-2.28,1.12-3.63,1.12-3.71,0-6.71-3.12-6.71-7.09s3-7.07,6.71-7.07,6.71,3.04,6.71,7.07c0,1.9-.7,3.64-1.85,4.92ZM54.68,18.13c0-3.13-2.22-5.49-5.07-5.49s-5.07,2.41-5.07,5.49,2.28,5.49,5.07,5.49c.92,0,1.77-.25,2.52-.71l-1.89-2.04h2.22l.9.98c.82-.98,1.33-2.27,1.33-3.72Z"/>
      <path class="cls-2" d="M63.64,23.62c2.28,0,3.53-1.49,3.53-3.51v-8.72h1.66v8.72c0,3.02-2.11,5.11-5.19,5.11s-5.19-2.1-5.19-5.11v-8.72h1.64v8.72c0,2.02,1.29,3.51,3.55,3.51Z"/>
      <path class="cls-2" d="M81.42,11.39v1.59h-8.01v4.11h7.23v1.59h-7.23v4.7h8.01v1.61h-9.67v-13.6h9.67Z"/>
    </g>
    <g>
      <path class="cls-1" d="M4.34,7.24c-1.9,0-3.46-1.61-3.46-3.6S2.44,0,4.34,0c1.54,0,2.75.91,3.22,2.3h-1.22c-.39-.75-1.1-1.22-2-1.22-1.27,0-2.32,1.15-2.32,2.54s1.05,2.52,2.32,2.52c.91,0,1.62-.47,2-1.22h1.22c-.46,1.39-1.67,2.3-3.22,2.3Z"/>
      <path class="cls-1" d="M15.36,7.07h-1.1v-1.11c-.48.71-1.37,1.29-2.38,1.29-1.98,0-3.46-1.62-3.46-3.62s1.47-3.63,3.46-3.63c1.02,0,1.9.58,2.38,1.27V.17h1.1v6.9ZM11.88,1.09c-1.3,0-2.32,1.15-2.32,2.56s1.02,2.52,2.32,2.52,2.34-1.14,2.34-2.52-1.07-2.56-2.34-2.56Z"/>
      <path class="cls-1" d="M23.08,3.39h-1.13v-.51c0-1.07-.62-1.83-1.69-1.83s-1.81.78-1.81,1.81v4.22h-1.14V.17h1.1v.75c.47-.58,1.18-.92,2.01-.92,1.69,0,2.65,1.21,2.65,2.92v.47Z"/>
      <path class="cls-1" d="M30.94,7.07h-1.1v-1.11c-.48.71-1.37,1.29-2.38,1.29-1.98,0-3.46-1.62-3.46-3.62s1.47-3.63,3.46-3.63c1.02,0,1.9.58,2.38,1.27V.17h1.1v6.9ZM27.45,1.09c-1.3,0-2.32,1.15-2.32,2.56s1.02,2.52,2.32,2.52,2.34-1.14,2.34-2.52-1.07-2.56-2.34-2.56Z"/>
      <path class="cls-1" d="M42.67,7.07h-1.14V2.77c0-1.07-.51-1.73-1.57-1.73-.94,0-1.62.78-1.62,1.81v4.22h-1.13V2.77c0-1.07-.54-1.73-1.55-1.73-.94,0-1.63.78-1.63,1.81v4.22h-1.14V.17h1.1v.75c.43-.58,1.07-.92,1.84-.92.98,0,1.7.44,2.13,1.18.43-.71,1.17-1.18,2.16-1.18,1.59,0,2.56,1.09,2.56,2.8v4.27Z"/>
      <path class="cls-1" d="M51.01,7.07h-1.1v-1.11c-.48.71-1.37,1.29-2.38,1.29-1.98,0-3.46-1.62-3.46-3.62s1.47-3.63,3.46-3.63c1.02,0,1.9.58,2.38,1.27V.17h1.1v6.9ZM47.53,1.09c-1.3,0-2.32,1.15-2.32,2.56s1.02,2.52,2.32,2.52,2.34-1.14,2.34-2.52-1.07-2.56-2.34-2.56Z"/>
      <path class="cls-1" d="M58.72,7.07h-1.13V2.88c0-1.06-.59-1.83-1.69-1.83s-1.81.78-1.81,1.81v4.22h-1.14V.17h1.1v.75c.47-.58,1.18-.92,2.01-.92,1.69,0,2.65,1.21,2.65,2.92v4.15Z"/>
    </g>
  </g>
</svg>