<?xml version="1.0" encoding="UTF-8"?>
<svg xmlns="http://www.w3.org/2000/svg" xmlns:xlink="http://www.w3.org/1999/xlink" width="100px" height="100px" viewBox="0 0 100 100" version="1.1">
<g id="surface1">
<path style=" stroke:none;fill-rule:nonzero;fill:rgb(0%,0%,0%);fill-opacity:1;" d="M 14.300781 1.519531 C 14.078125 1.558594 13.398438 1.699219 12.800781 1.820312 C 11.300781 2.121094 8.339844 3.558594 6.898438 4.738281 C 4.800781 6.441406 2.738281 9.621094 1.878906 12.5 C 1.539062 13.640625 1.5 15.640625 1.441406 48.601562 C 1.421875 69.558594 1.460938 84.261719 1.578125 85.398438 C 2.179688 91.558594 6.140625 96.339844 12.199219 98.238281 L 13.699219 98.699219 L 86.699219 98.699219 L 88.199219 98.238281 C 93.398438 96.601562 97 92.859375 98.441406 87.558594 L 98.898438 85.898438 L 98.898438 13.898438 L 98.441406 12.398438 C 97.800781 10.398438 96.621094 8.179688 95.339844 6.621094 C 93.398438 4.238281 89.699219 2.121094 86.578125 1.621094 C 85.359375 1.421875 15.28125 1.339844 14.300781 1.519531 Z M 75.261719 26.238281 C 76.761719 26.941406 77.800781 27.78125 78.660156 28.960938 C 79.421875 29.980469 80.21875 32.101562 80.039062 32.558594 C 79.980469 32.71875 78.980469 33.300781 77.820312 33.859375 C 73.601562 35.839844 57.839844 43.28125 55.398438 44.441406 C 50.640625 46.71875 50.300781 46.839844 49.558594 46.519531 C 48.660156 46.160156 39.839844 42 32.300781 38.398438 C 28.898438 36.78125 24.878906 34.898438 23.398438 34.199219 C 21.921875 33.519531 20.578125 32.839844 20.421875 32.699219 C 20.179688 32.460938 20.199219 32.28125 20.480469 31.359375 C 21.320312 28.761719 23.398438 26.738281 26.101562 25.878906 C 26.738281 25.679688 31.859375 25.640625 50.5 25.660156 L 74.101562 25.699219 Z M 28.640625 45.378906 C 33.078125 47.441406 39.441406 50.441406 42.800781 52.019531 C 50.640625 55.71875 49.878906 55.660156 55.398438 53.058594 C 57.539062 52.058594 60.058594 50.878906 61 50.441406 C 61.941406 50 63.558594 49.238281 64.601562 48.738281 C 79.441406 41.738281 79.960938 41.5 80.121094 41.640625 C 80.28125 41.820312 80.359375 64.679688 80.199219 66.820312 C 79.941406 70.238281 78.460938 72.441406 75.460938 73.859375 L 74.101562 74.5 L 26.300781 74.5 L 24.941406 73.859375 C 23.28125 73.078125 21.378906 71.238281 20.800781 69.878906 C 20.101562 68.28125 20 66.621094 20 56.800781 C 20 46.960938 20.140625 41.601562 20.421875 41.601562 C 20.5 41.601562 24.199219 43.300781 28.640625 45.378906 Z M 28.640625 45.378906 "/>
</g>
</svg>
