<?xml version="1.0" encoding="UTF-8"?>
<svg id="Calque_2" data-name="Calque 2" xmlns="http://www.w3.org/2000/svg" viewBox="0 0 56.71 56.71">
  <defs>
    <style>
      .cls-1 {
        fill: #df2f75;
        stroke-width: 0px;
      }
    </style>
  </defs>
  <g id="Logo">
    <path class="cls-1" d="M28.36,0C12.7,0,0,12.7,0,28.35s12.7,28.35,28.36,28.35,28.36-12.69,28.36-28.35S44.01,0,28.36,0ZM48.12,28.99c-1.72-1.24-3.32-2.66-5.13-3.71-6.06-3.51-12.65-4.57-19.56-3.73-3.51.42-6.86,1.42-9.72,3.62-1.37,1.05-2.49,2.3-3.11,3.95-.44,1.16-.31,2.26.63,3.03,1.06.86,2.19,1.83,3.46,2.22,2.56.79,5.21,1.43,7.86,1.78,4.73.63,9.49.59,14.17-.48,2.17-.49,4.27-1.22,6-2.71,1.14-1,1.14-1.52-.01-2.5-1.79-1.52-3.93-2.14-6.23-2.28-.23-.01-.54.11-.72.28-3.31,3.09-7.17,3.16-11.18,1.91-.93-.29-1.83-1.01-2.51-1.74-.89-.98-.75-2.03.36-2.76,1.05-.69,2.22-1.32,3.42-1.66,3.25-.92,6.3-.28,9.13,1.54.77,1.7,2.49,1.53,3.91,1.96,1.32.41,2.65.8,3.92,1.34.78.33,1.52.85,2.15,1.42,1.02.93,1.08,2.2.22,3.26-.44.53-.94,1.09-1.54,1.38-1.96.94-3.91,1.97-5.98,2.6-6.75,2.04-13.56,1.6-20.35.1-2.59-.57-5.08-1.4-7.18-3.11-2.61-2.13-3-5.41-.86-8.02.76-.92,1.67-1.79,2.68-2.43,6.58-4.23,13.84-5.23,21.45-4.27,1.76.22,3.5.59,5.56.94-.6-.45-.94-.72-1.31-.96-3.7-2.44-7.85-3.44-12.2-3.65-5.68-.28-11.17.82-16.52,2.67-.01,0-.24-.29-.29-.34l-.18-.33c4.21-2.12,8.58-3.38,13.18-3.75,5.18-.43,10.26.05,15.11,2.03,5.89,2.41,9.53,7.08,12.42,12.49-.05.11-.12.24-.18.35-.29-.15-.61-.26-.87-.45Z"/>
  </g>
</svg>