<?xml version="1.0" standalone="no"?><svg xmlns="http://www.w3.org/2000/svg" viewBox="0 0 1440 320"><path fill="#f0c8d2" fill-opacity="1" d="M0,320L26.7,304C53.3,288,107,256,160,240C213.3,224,267,224,320,218.7C373.3,213,427,203,480,202.7C533.3,203,587,213,640,192C693.3,171,747,117,800,80C853.3,43,907,21,960,42.7C1013.3,64,1067,128,1120,154.7C1173.3,181,1227,171,1280,160C1333.3,149,1387,139,1413,133.3L1440,128L1440,320L1413.3,320C1386.7,320,1333,320,1280,320C1226.7,320,1173,320,1120,320C1066.7,320,1013,320,960,320C906.7,320,853,320,800,320C746.7,320,693,320,640,320C586.7,320,533,320,480,320C426.7,320,373,320,320,320C266.7,320,213,320,160,320C106.7,320,53,320,27,320L0,320Z"></path></svg>